<?xml version='1.0' encoding='UTF-8'?>
<!DOCTYPE svg PUBLIC '-//W3C//DTD SVG 20010904//EN' 'http://www.w3.org/TR/2001/REC-SVG-20010904/DTD/svg10.dtd'>
<svg 
 xmlns='http://www.w3.org/2000/svg'
 xml:space='preserve'
 xmlns:xlink='http://www.w3.org/1999/xlink'
 width='100%' 
 height='100%'
  viewBox='0 0 600 112'>
 <title>SVG Banner Print</title>
 <desc>Designed for the SVG Logo Contest in 2006 by Harvey Rayner. It is available under the Creative Commons license for those who have an SVG product or who are using SVG on their site.</desc>
 
   <metadata>
      <title>Creative Commons License</title>
      <rdf:RDF xmlns='http://web.resource.org/cc/' xmlns:dc='http://purl.org/dc/elements/1.1/' xmlns:rdf='http://www.w3.org/1999/02/22-rdf-syntax-ns#' xmlns:rdfs='http://www.w3.org/2000/01/rdf-schema#'>
         <Work rdf:about=''>
            <license rdf:resource='http://creativecommons.org/licenses/by-nd/2.5/' />
            <dc:type rdf:resource='http://purl.org/dc/dcmitype/StillImage' />
         </Work>
         <License rdf:about='http://creativecommons.org/licenses/by-nd/2.5/'>
            <permits rdf:resource='http://web.resource.org/cc/Reproduction'/><permits rdf:resource='http://web.resource.org/cc/Distribution'/>
            <requires rdf:resource='http://web.resource.org/cc/Notice'/>
            <requires rdf:resource='http://web.resource.org/cc/Attribution'/>
         </License>
      </rdf:RDF> 
   </metadata>

 <defs>
   <linearGradient id="id0" gradientUnits="userSpaceOnUse" x1="300" y1="111.978" x2="300" y2="0">
     <stop offset="0" stop-color="#00753C"/>
     <stop offset="0.168627" stop-color="#00994F"/>
     <stop offset="0.501961" stop-color="#00E878"/>
     <stop offset="0.831373" stop-color="#00994F"/>
     <stop offset="1" stop-color="#007D41"/>
    </linearGradient>
    <linearGradient id="id1" gradientUnits="userSpaceOnUse" x1="300.3" y1="88.6672" x2="300.3" y2="0.0286299">
     <stop offset="0" stop-color="#7F7F7F"/>
     <stop offset="1" stop-color="black"/>
     <stop offset="1" stop-color="black"/>
    </linearGradient>
 </defs>
 
  <g>
   <polygon id="background" fill="url(#id0)" points="208.25,0.0283449 600,0 600,112 0,112 0,96.8982 54.1163,47.4789 "/>

   <path id="siny_black_area" fill="url(#id1)" d="M252.897 7.49486c3.6435,5.97251 5.71622,13.0327 5.71622,20.55 0,8.61803 -2.77189,16.6054 -7.47006,23.1105l90.086 37.5286 219.242 0 32.5128 -35.8409 0 -45.3483 -340.087 0zm-54.1565 36.9547c-1.59558,-4.2352 -4.09584,-8.20821 -7.50431,-11.6155 17.9187,-0.00354311 32.4856,-14.3685 32.8009,-32.2116l0.00118104 -0.594062 -15.0429 0 -9.60774 7.35078 -191.772 -0.257466 2.51679 41.2654 2.46364 -0.00472415 186.063 -3.91278 0.0814916 -0.0200776z"/>

   <path id="black_area" fill="#000000" d="M592.983 52.46c-35.1848,9.11027 -70.4639,10.8666 -104.392,12.0453 -78.2569,2.71729 -159.929,-3.77575 -237.361,-13.4836 -1.27786,1.78072 -2.68668,3.44069 -4.23865,4.99238l0 0c-7.23147,7.15465 -11.6558,17.0535 -11.6558,27.9842 0,7.51607 2.12825,14.5392 5.78948,20.5294l351.858 0 0 -52.0676 0.000283465 0zm-592.967 59.5401l0.00340158 0c18.1174,0 32.8082,-14.6846 32.8082,-32.7957 6.40715,6.40488 14.7971,9.60463 23.1956,9.60463l0 0c8.39707,0 16.7922,-3.19975 23.1942,-9.60463 0.00340158,18.1111 14.692,32.7957 32.8119,32.7957 18.1205,0 32.8079,-14.6846 32.8116,-32.7957 12.8095,12.8069 33.5818,12.8069 46.3947,0 9.44476,-9.44164 11.9237,-23.2053 7.44407,-34.918 -19.1957,-1.87965 -42.3037,-4.02548 -48.0552,-4.47052 -31.1652,-2.41569 -95.0573,-1.74274 -145.192,9.97455l0.148819 36.4703 -5.50488 10.6651 -0.0581103 0.0096378 0 0.0187087 -0.00226772 15.046z"/>
  
  <path id="nodes_and_connectors" fill="#ffffff" d="M0.0165345 96.9478l0 0c9.80733,0 17.7593,-7.95192 17.7593,-17.7569 0,-4.9013 -1.98769,-9.34082 -5.20129,-12.5544l0 -36.3252 25.6911 25.6864c0,4.54463 1.73376,9.08808 5.20011,12.5544 3.46753,3.46634 8.01216,5.20011 12.558,5.20011l0 0c4.54581,0 9.09044,-1.73376 12.558,-5.20011 3.46634,-3.46634 5.20011,-8.00979 5.20011,-12.5544l25.6911 -25.6864 0 36.3252c-3.2136,3.2136 -5.20129,7.65312 -5.20129,12.5544 0,9.80497 7.95192,17.7569 17.7593,17.7569 9.80615,0 17.7593,-7.95192 17.7593,-17.7569 0,-4.9013 -1.98769,-9.34082 -5.20129,-12.5544l0 -36.3252 25.6899 25.6864c0.00118104,4.54345 1.73376,9.08808 5.20129,12.5544 6.93387,6.93387 18.1809,6.93387 25.1159,0 6.93387,-6.93269 6.93387,-18.1773 0,-25.1112 -3.46753,-3.46634 -8.01216,-5.19893 -12.558,-5.20011l-25.6899 -25.6852 36.3311 0c3.21478,3.21242 7.6543,5.20011 12.558,5.20011 9.80615,0 17.7593,-7.95074 17.7593,-17.7557l0 0 -208.98 0 0 96.9478zm56.0071 -58.707l-25.6899 -25.6852 25.6899 0 0 0 25.6899 0 -25.6899 25.6852z"/>

  <polyline id="top_left_fine_border" fill="none" stroke="#dddddd" stroke-width="0.472415" points="0.261009,96.9454 0.235026,0.261009 208.995,0.261009 "/>

  <path id="SVG" fill="#ffffff" d="M366.16 15.673l-16.5206 79.7519 -13.686 0 -16.5206 -79.7519 13.6894 0 9.67437 46.711 9.67408 -46.711 13.6894 0zm-86.6104 39.8753c-4.22844,-4.22731 -6.84397,-10.067 -6.84397,-16.5164 0,-12.8985 10.4624,-23.3589 23.3637,-23.3586 12.901,-0.000283465 23.3634,10.4601 23.3634,23.3586l-13.686 0c0,-5.34274 -4.33361,-9.6755 -9.67748,-9.6755 -5.34388,0 -9.67777,4.33276 -9.67777,9.6755 0,2.66882 1.08142,5.08564 2.83011,6.83632l0.00453543 0c1.75096,1.7521 4.17062,2.83578 6.84312,2.83606l0 0.00311811c6.45052,0 12.291,2.61581 16.5192,6.84312l0.000566929 -0.000566929c4.22816,4.22731 6.84369,10.067 6.84369,16.5164 0,12.8985 -10.4624,23.3586 -23.3634,23.3586 -12.9013,0 -23.3637,-10.4601 -23.3637,-23.3586l13.686 0c0,5.34274 4.33389,9.6755 9.67777,9.6755 5.34388,0 9.67748,-4.33276 9.67748,-9.6755 0,-2.66882 -1.08142,-5.08564 -2.82983,-6.83632l-0.00453543 0c-1.75124,-1.7521 -4.1709,-2.83606 -6.84312,-2.83606l0 -0.00311811c-6.45052,0 -12.291,-2.61581 -16.5192,-6.84312l-0.000566929 0.000566929zm109.977 -6.83915l23.3637 0 0 23.3555 0.00340158 0c0,12.8993 -10.4632,23.3603 -23.3654,23.3603 -12.9013,0 -23.3643,-10.4598 -23.3651,-23.3586l0 -0.00170079 0 -33.031 -0.00340158 0c0,-12.8993 10.4632,-23.3606 23.3651,-23.3606 12.9022,0 23.3654,10.4613 23.3654,23.3606l-13.6894 0c0,-5.34104 -4.33219,-9.67238 -9.67437,-9.67238 -5.34189,0 -9.67408,4.33134 -9.67408,9.67238l0 33.0327 0 0c0.000850394,5.34019 4.33276,9.6704 9.67437,9.67068 5.34076,-0.000283465 9.67238,-4.32964 9.67408,-9.66898l0 -0.00340158 0 -9.66898 -9.67437 0 0 -13.6865z"/>

  <path id="print" fill="#ffffff" stroke="#ffffff" stroke-width="0.5" d="M501.427 37.7609l3.67937 0 0 36.8022 -3.67937 0 0 -36.8022zm53.3634 18.4008l0 18.4014 -3.68051 0 0 -18.4014c0,-8.10766 -6.61323,-14.7215 -14.7206,-14.7215 -8.10822,0 -14.7212,6.6138 -14.7212,14.7215l0 18.4014 -3.68051 0 0 -18.4014 0 -18.4008 3.68051 0 0 7.38142c3.36161,-4.47704 8.71285,-7.38142 14.7212,-7.38142 10.135,0 18.4011,8.26583 18.4011,18.4008zm-104.887 18.4014c10.1347,0 18.4014,-8.26668 18.4014,-18.4014 0,-10.135 -8.26668,-18.4008 -18.4014,-18.4008 -6.00803,0 -11.359,2.90523 -14.7212,7.38142l0 -7.38142 -3.67994 0 0 18.4008 0 33.122 3.67994 0 0 -22.1029c3.36217,4.47732 8.71314,7.38227 14.7212,7.38227zm29.4421 -31.7996c2.70085,-3.06454 6.65178,-5.00258 11.0404,-5.00258l0 3.67937c-6.08088,0 -11.0404,4.96006 -11.0404,11.0412l0 22.0816 -3.68051 0 0 -22.0816 0 -14.7206 3.68051 0 0 5.00258zm99.3663 -5.00258l-11.0412 0 0 -11.0412 -3.67937 0 0 33.122c0,8.10766 6.61266,14.7215 14.7206,14.7215l0 -3.68079c-6.08088,0 -11.0412,-4.95921 -11.0412,-11.0407l0 -18.4014 11.0412 0 0 -3.67937zm-128.808 33.1214c-8.10851,0 -14.7212,-6.61295 -14.7212,-14.7206 0,-8.10766 6.61266,-14.7215 14.7212,-14.7215 8.10794,0 14.7215,6.6138 14.7215,14.7215 0,8.10766 -6.61351,14.7206 -14.7215,14.7206zm51.5237 -44.1627l3.67937 0 0 3.68022 -3.67937 0 0 -3.68022z"/>

  </g>

</svg>
