<svg xmlns="http://www.w3.org/2000/svg" xmlns:xlink="http://www.w3.org/1999/xlink" viewBox="0 0 215.742 710.946"><defs><style>.a,.ea,.eb,.ec{fill:none;}.a{clip-rule:evenodd;}.b{clip-path:url(#a);}.c{fill:#fff;}.d{fill:#fefefe;}.e{fill:#fcfcfc;}.f{fill:#fbfbfb;}.g{fill:#f9f9f9;}.h{fill:#f8f8f8;}.i{fill:#f6f6f6;}.j{fill:#f5f5f5;}.k{fill:#f4f4f3;}.l{fill:#f2f2f2;}.m{fill:#f1f1f1;}.n{fill:#efefef;}.o{fill:#eee;}.p{fill:#ececec;}.q{fill:#ebebeb;}.r{fill:#e9e9e9;}.s{fill:#e8e8e8;}.t{fill:#e6e6e6;}.u{fill:#e5e5e5;}.v{fill:#e3e3e3;}.w{fill:#e2e2e2;}.x{fill:#e1e0e0;}.y{fill:#dfdfdf;}.z{fill:#dededd;}.aa{fill:#dcdcdc;}.ab{fill:#dbdbda;}.ac{fill:#d9d9d9;}.ad{fill:#d8d8d7;}.ae{fill:#d6d6d6;}.af{fill:#d5d4d4;}.ag{fill:#d3d3d3;}.ah{fill:#d1d1d1;}.ai{fill:#d0d0d0;}.aj{fill:#cecece;}.ak{fill:#cdcdcc;}.al{fill:#cbcbcb;}.am{fill:#cac9c9;}.an{fill:#c8c8c8;}.ao{fill:#c7c6c6;}.ap{fill:#c5c5c5;}.aq{fill:#c3c3c3;}.ar{fill:#c2c2c1;}.as{fill:silver;}.at{fill:#bfbfbe;}.au{fill:#bdbdbd;}.av{fill:#bcbcbb;}.aw{fill:#bababa;}.ax{fill:#b8b8b8;}.ay{fill:#b7b7b6;}.az{fill:#b5b5b5;}.ba{fill:#b4b4b3;}.bb{fill:#b2b2b2;}.bc{fill:#b0b0b0;}.bd{fill:#afafae;}.be{fill:#adadad;}.bf{fill:#ababab;}.bg{fill:#aaaaa9;}.bh{fill:#a8a8a8;}.bi{fill:#a6a6a6;}.bj{fill:#a5a5a4;}.bk{fill:#a3a3a2;}.bl{fill:#a1a1a1;}.bm{fill:#a09f9f;}.bn{fill:#9e9e9d;}.bo{fill:#9c9c9c;}.bp{fill:#9b9a9a;}.bq{fill:#999998;}.br{fill:#979796;}.bs{fill:#959595;}.bt{fill:#949493;}.bu{fill:#929291;}.bv{fill:#909090;}.bw{fill:#8f8e8e;}.bx{fill:#8d8d8c;}.by{fill:#8b8b8b;}.bz{fill:#8a8989;}.ca{fill:#888887;}.cb{fill:#868685;}.cc{fill:#848483;}.cd{fill:#828282;}.ce{fill:#818080;}.cf{fill:#7f7e7e;}.cg{fill:#7d7d7c;}.ch{fill:#7b7b7a;}.ci{fill:#797978;}.cj{fill:#777776;}.ck{fill:#757574;}.cl{fill:#737372;}.cm{fill:#717170;}.cn{fill:#6f6f6f;}.co{fill:#6e6d6d;}.cp{fill:#6c6b6b;}.cq{fill:#6a6969;}.cr{fill:#686867;}.cs{fill:#666665;}.ct{fill:#646463;}.cu{fill:#626261;}.cv{fill:#60605f;}.cw{fill:#5e5e5d;}.cx{fill:#5c5c5b;}.cy{fill:#5b5a5a;}.cz{fill:#595858;}.da{fill:#575656;}.db{fill:#555454;}.dc{fill:#525251;}.dd{fill:#50504f;}.de{fill:#4e4e4d;}.df{fill:#4c4c4b;}.dg{fill:#4a4a49;}.dh{fill:#484847;}.di{fill:#464545;}.dj{fill:#444342;}.dk{fill:#414140;}.dl{fill:#3f3f3e;}.dm{fill:#3d3d3c;}.dn{fill:#3b3b3a;}.do{fill:#393837;}.dp{fill:#363635;}.dq{fill:#343433;}.dr{fill:#323130;}.ds{fill:#2f2f2e;}.dt{fill:#2d2d2c;}.du{fill:#2a2a29;}.dv{fill:#282826;}.dw{fill:#252524;}.dx{fill:#222221;}.dy{fill:#20201e;}.dz{fill:#1d1d1b;}.ea,.eb{stroke:#1d1d1b;}.ea,.eb,.ec{stroke-miterlimit:11.474;}.ea,.ec{stroke-width:0.395px;}.eb{stroke-width:0.898px;}.ec{stroke:#9d9d9c;}.ed{fill:#9d9d9c;fill-rule:evenodd;}</style><clipPath id="a" transform="translate(-198 -41)"><path class="a" d="M310.525,470.222c-17.984,0-32.734,22.763-32.734,50.826,0,28.081,14.75,50.844,32.734,50.844,17.966,0,32.716-22.763,32.716-50.844,0-28.063-14.75-50.826-32.716-50.826h0Z"/></clipPath></defs><title>cone</title><g class="b"><path class="c" d="M310.988,521.057h59.985a60.457,60.457,0,1,0-60.457,60.457,60.48,60.48,0,0,0,60.457-60.457" transform="translate(-198 -41)"/><path class="c" d="M310.988,521.057h59.985a60.457,60.457,0,1,0-60.457,60.457,60.48,60.48,0,0,0,60.457-60.457" transform="translate(-198 -41)"/><path class="d" d="M310.988,521.057H370.5a59.985,59.985,0,1,0-59.985,59.985A60.007,60.007,0,0,0,370.5,521.057" transform="translate(-198 -41)"/><path class="e" d="M310.988,521.057h59.041a59.513,59.513,0,1,0-59.513,59.513,59.535,59.535,0,0,0,59.513-59.513" transform="translate(-198 -41)"/><path class="f" d="M310.988,521.057h58.568A59.041,59.041,0,1,0,310.516,580.1a59.062,59.062,0,0,0,59.041-59.041" transform="translate(-198 -41)"/><path class="g" d="M310.988,521.057h58.1a58.568,58.568,0,1,0-58.568,58.568,58.59,58.59,0,0,0,58.568-58.568" transform="translate(-198 -41)"/><path class="h" d="M310.988,521.057h57.624a58.1,58.1,0,1,0-58.1,58.1,58.117,58.117,0,0,0,58.1-58.1" transform="translate(-198 -41)"/><path class="i" d="M310.988,521.057h57.151a57.624,57.624,0,1,0-57.624,57.624,57.645,57.645,0,0,0,57.624-57.624" transform="translate(-198 -41)"/><path class="j" d="M310.988,521.057h56.679a57.151,57.151,0,1,0-57.151,57.151,57.172,57.172,0,0,0,57.151-57.151" transform="translate(-198 -41)"/><path class="k" d="M310.988,521.057h56.207a56.679,56.679,0,1,0-56.679,56.679,56.7,56.7,0,0,0,56.679-56.679" transform="translate(-198 -41)"/><path class="l" d="M310.988,521.057h55.734a56.207,56.207,0,1,0-56.207,56.207,56.227,56.227,0,0,0,56.207-56.207" transform="translate(-198 -41)"/><path class="m" d="M310.988,521.057H366.25a55.734,55.734,0,1,0-55.734,55.734,55.755,55.755,0,0,0,55.734-55.734" transform="translate(-198 -41)"/><path class="n" d="M310.988,521.057h54.79a55.262,55.262,0,1,0-55.262,55.262,55.282,55.282,0,0,0,55.262-55.262" transform="translate(-198 -41)"/><path class="o" d="M310.988,521.057h54.317a54.79,54.79,0,1,0-54.79,54.79,54.81,54.81,0,0,0,54.79-54.79" transform="translate(-198 -41)"/><path class="p" d="M310.988,521.057h53.845a54.317,54.317,0,1,0-54.317,54.317,54.337,54.337,0,0,0,54.317-54.317" transform="translate(-198 -41)"/><path class="q" d="M310.988,521.057h53.373A53.845,53.845,0,1,0,310.516,574.9a53.865,53.865,0,0,0,53.845-53.845" transform="translate(-198 -41)"/><path class="r" d="M310.988,521.057h52.9a53.373,53.373,0,1,0-53.373,53.373,53.392,53.392,0,0,0,53.373-53.373" transform="translate(-198 -41)"/><path class="s" d="M310.988,521.057h52.428a52.9,52.9,0,1,0-52.9,52.9,52.92,52.92,0,0,0,52.9-52.9" transform="translate(-198 -41)"/><path class="t" d="M310.988,521.057h51.956a52.428,52.428,0,1,0-52.428,52.428,52.447,52.447,0,0,0,52.428-52.428" transform="translate(-198 -41)"/><path class="u" d="M310.988,521.057h51.483a51.956,51.956,0,1,0-51.956,51.956,51.975,51.975,0,0,0,51.956-51.956" transform="translate(-198 -41)"/><path class="v" d="M310.988,521.057H362a51.483,51.483,0,1,0-51.483,51.483A51.5,51.5,0,0,0,362,521.057" transform="translate(-198 -41)"/><path class="w" d="M310.988,521.057h50.539a51.011,51.011,0,1,0-51.011,51.011,51.03,51.03,0,0,0,51.011-51.011" transform="translate(-198 -41)"/><path class="x" d="M310.988,521.057h50.066A50.539,50.539,0,1,0,310.516,571.6a50.557,50.557,0,0,0,50.539-50.539" transform="translate(-198 -41)"/><path class="y" d="M310.988,521.057h49.594a50.066,50.066,0,1,0-50.066,50.066,50.085,50.085,0,0,0,50.066-50.066" transform="translate(-198 -41)"/><path class="z" d="M310.988,521.057H360.11a49.594,49.594,0,1,0-49.594,49.594,49.612,49.612,0,0,0,49.594-49.594" transform="translate(-198 -41)"/><path class="aa" d="M310.988,521.057h48.649a49.122,49.122,0,1,0-49.122,49.122,49.14,49.14,0,0,0,49.122-49.122" transform="translate(-198 -41)"/><path class="ab" d="M310.988,521.057h48.177a48.649,48.649,0,1,0-48.649,48.649,48.667,48.667,0,0,0,48.649-48.649" transform="translate(-198 -41)"/><path class="ac" d="M310.988,521.057h47.7a48.177,48.177,0,1,0-48.177,48.177,48.195,48.195,0,0,0,48.177-48.177" transform="translate(-198 -41)"/><path class="ad" d="M310.988,521.057h47.232a47.7,47.7,0,1,0-47.7,47.7,47.722,47.722,0,0,0,47.7-47.7" transform="translate(-198 -41)"/><path class="ae" d="M310.988,521.057h46.76a47.232,47.232,0,1,0-47.232,47.232,47.25,47.25,0,0,0,47.232-47.232" transform="translate(-198 -41)"/><path class="af" d="M310.988,521.057h46.288a46.76,46.76,0,1,0-46.76,46.76,46.777,46.777,0,0,0,46.76-46.76" transform="translate(-198 -41)"/><path class="ag" d="M310.988,521.057H356.8a46.288,46.288,0,1,0-46.288,46.288A46.3,46.3,0,0,0,356.8,521.057" transform="translate(-198 -41)"/><path class="ah" d="M310.988,521.057h45.343a45.815,45.815,0,1,0-45.815,45.815,45.832,45.832,0,0,0,45.815-45.815" transform="translate(-198 -41)"/><path class="ai" d="M310.988,521.057h44.871A45.343,45.343,0,1,0,310.516,566.4a45.36,45.36,0,0,0,45.343-45.343" transform="translate(-198 -41)"/><path class="aj" d="M310.988,521.057h44.4a44.871,44.871,0,1,0-44.871,44.871,44.887,44.887,0,0,0,44.871-44.871" transform="translate(-198 -41)"/><path class="ak" d="M310.988,521.057h43.926a44.4,44.4,0,1,0-44.4,44.4,44.415,44.415,0,0,0,44.4-44.4" transform="translate(-198 -41)"/><path class="al" d="M310.988,521.057h43.454a43.926,43.926,0,1,0-43.926,43.926,43.942,43.942,0,0,0,43.926-43.926" transform="translate(-198 -41)"/><path class="am" d="M310.988,521.057H353.97a43.454,43.454,0,1,0-43.454,43.454,43.47,43.47,0,0,0,43.454-43.454" transform="translate(-198 -41)"/><path class="an" d="M310.988,521.057H353.5a42.981,42.981,0,1,0-42.981,42.981A43,43,0,0,0,353.5,521.057" transform="translate(-198 -41)"/><path class="ao" d="M310.988,521.057h42.037a42.509,42.509,0,1,0-42.509,42.509,42.525,42.525,0,0,0,42.509-42.509" transform="translate(-198 -41)"/><path class="ap" d="M310.988,521.057h41.565a42.037,42.037,0,1,0-42.037,42.037,42.052,42.052,0,0,0,42.037-42.037" transform="translate(-198 -41)"/><path class="aq" d="M310.988,521.057H352.08a41.564,41.564,0,1,0-41.565,41.565,41.58,41.58,0,0,0,41.565-41.565" transform="translate(-198 -41)"/><path class="ar" d="M310.988,521.057h40.62a41.092,41.092,0,1,0-41.092,41.092,41.107,41.107,0,0,0,41.092-41.092" transform="translate(-198 -41)"/><path class="as" d="M310.988,521.057h40.148a40.62,40.62,0,1,0-40.62,40.62,40.635,40.635,0,0,0,40.62-40.62" transform="translate(-198 -41)"/><path class="at" d="M310.988,521.057h39.675A40.148,40.148,0,1,0,310.516,561.2a40.162,40.162,0,0,0,40.148-40.148" transform="translate(-198 -41)"/><path class="au" d="M310.988,521.057h39.2a39.675,39.675,0,1,0-39.675,39.675,39.69,39.69,0,0,0,39.675-39.675" transform="translate(-198 -41)"/><path class="av" d="M310.988,521.057h38.731a39.2,39.2,0,1,0-39.2,39.2,39.217,39.217,0,0,0,39.2-39.2" transform="translate(-198 -41)"/><path class="aw" d="M310.988,521.057h38.258a38.731,38.731,0,1,0-38.731,38.731,38.745,38.745,0,0,0,38.731-38.731" transform="translate(-198 -41)"/><path class="ax" d="M310.988,521.057h37.786a38.258,38.258,0,1,0-38.258,38.258,38.272,38.272,0,0,0,38.258-38.258" transform="translate(-198 -41)"/><path class="ay" d="M310.988,521.057H348.3a37.786,37.786,0,1,0-37.786,37.786A37.8,37.8,0,0,0,348.3,521.057" transform="translate(-198 -41)"/><path class="az" d="M310.988,521.057h36.841a37.314,37.314,0,1,0-37.314,37.314,37.327,37.327,0,0,0,37.314-37.314" transform="translate(-198 -41)"/><path class="ba" d="M310.988,521.057h36.369A36.841,36.841,0,1,0,310.516,557.9a36.855,36.855,0,0,0,36.841-36.841" transform="translate(-198 -41)"/><path class="bb" d="M310.988,521.057h35.9a36.369,36.369,0,1,0-36.369,36.369,36.382,36.382,0,0,0,36.369-36.369" transform="translate(-198 -41)"/><path class="bc" d="M310.988,521.057h35.424a35.9,35.9,0,1,0-35.9,35.9,35.91,35.91,0,0,0,35.9-35.9" transform="translate(-198 -41)"/><path class="bd" d="M310.988,521.057H345.94a35.424,35.424,0,1,0-35.424,35.424,35.437,35.437,0,0,0,35.424-35.424" transform="translate(-198 -41)"/><path class="be" d="M310.988,521.057h34.48a34.952,34.952,0,1,0-34.952,34.952,34.965,34.965,0,0,0,34.952-34.952" transform="translate(-198 -41)"/><path class="bf" d="M310.988,521.057H345a34.48,34.48,0,1,0-34.48,34.48A34.492,34.492,0,0,0,345,521.057" transform="translate(-198 -41)"/><path class="bg" d="M310.988,521.057h33.535a34.007,34.007,0,1,0-34.007,34.007,34.02,34.02,0,0,0,34.007-34.007" transform="translate(-198 -41)"/><path class="bh" d="M310.988,521.057h33.063a33.535,33.535,0,1,0-33.535,33.535,33.547,33.547,0,0,0,33.535-33.535" transform="translate(-198 -41)"/><path class="bi" d="M310.988,521.057h32.59a33.063,33.063,0,1,0-33.063,33.063,33.075,33.075,0,0,0,33.063-33.063" transform="translate(-198 -41)"/><path class="bj" d="M310.988,521.057h32.118a32.59,32.59,0,1,0-32.59,32.59,32.6,32.6,0,0,0,32.59-32.59" transform="translate(-198 -41)"/><path class="bk" d="M310.988,521.057h31.646a32.118,32.118,0,1,0-32.118,32.118,32.13,32.13,0,0,0,32.118-32.118" transform="translate(-198 -41)"/><path class="bl" d="M310.988,521.057h31.173A31.646,31.646,0,1,0,310.516,552.7a31.657,31.657,0,0,0,31.646-31.646" transform="translate(-198 -41)"/><path class="bm" d="M310.988,521.057h30.7a31.173,31.173,0,1,0-31.173,31.173,31.185,31.185,0,0,0,31.173-31.173" transform="translate(-198 -41)"/><path class="bn" d="M310.988,521.057h30.229a30.7,30.7,0,1,0-30.7,30.7,30.712,30.712,0,0,0,30.7-30.7" transform="translate(-198 -41)"/><path class="bo" d="M310.988,521.057h29.756a30.229,30.229,0,1,0-30.229,30.229,30.24,30.24,0,0,0,30.229-30.229" transform="translate(-198 -41)"/><path class="bp" d="M310.988,521.057h29.284a29.756,29.756,0,1,0-29.756,29.756,29.767,29.767,0,0,0,29.756-29.756" transform="translate(-198 -41)"/><path class="bq" d="M310.988,521.057H339.8a29.284,29.284,0,1,0-29.284,29.284A29.295,29.295,0,0,0,339.8,521.057" transform="translate(-198 -41)"/><path class="br" d="M310.988,521.057h28.339a28.812,28.812,0,1,0-28.812,28.812,28.822,28.822,0,0,0,28.812-28.812" transform="translate(-198 -41)"/><path class="bs" d="M310.988,521.057h27.867A28.339,28.339,0,1,0,310.516,549.4a28.35,28.35,0,0,0,28.339-28.339" transform="translate(-198 -41)"/><path class="bt" d="M310.988,521.057h27.395a27.867,27.867,0,1,0-27.867,27.867,27.877,27.877,0,0,0,27.867-27.867" transform="translate(-198 -41)"/><path class="bu" d="M310.988,521.057h26.922a27.395,27.395,0,1,0-27.395,27.395,27.4,27.4,0,0,0,27.395-27.395" transform="translate(-198 -41)"/><path class="bv" d="M310.988,521.057h26.45a26.922,26.922,0,1,0-26.922,26.922,26.932,26.932,0,0,0,26.922-26.922" transform="translate(-198 -41)"/><path class="bw" d="M310.988,521.057h25.978a26.45,26.45,0,1,0-26.45,26.45,26.46,26.46,0,0,0,26.45-26.45" transform="translate(-198 -41)"/><path class="bx" d="M310.988,521.057h25.505a25.978,25.978,0,1,0-25.978,25.978,25.987,25.987,0,0,0,25.978-25.978" transform="translate(-198 -41)"/><path class="by" d="M310.988,521.057h25.033a25.505,25.505,0,1,0-25.505,25.505,25.515,25.515,0,0,0,25.505-25.505" transform="translate(-198 -41)"/><path class="bz" d="M310.988,521.057h24.561a25.033,25.033,0,1,0-25.033,25.033,25.042,25.042,0,0,0,25.033-25.033" transform="translate(-198 -41)"/><path class="ca" d="M310.988,521.057h24.089a24.561,24.561,0,1,0-24.561,24.561,24.57,24.57,0,0,0,24.561-24.561" transform="translate(-198 -41)"/><path class="cb" d="M310.988,521.057H334.6a24.089,24.089,0,1,0-24.089,24.089A24.1,24.1,0,0,0,334.6,521.057" transform="translate(-198 -41)"/><path class="cc" d="M310.988,521.057h23.144a23.616,23.616,0,1,0-23.616,23.616,23.625,23.625,0,0,0,23.616-23.616" transform="translate(-198 -41)"/><path class="cd" d="M310.988,521.057H333.66A23.144,23.144,0,1,0,310.516,544.2a23.152,23.152,0,0,0,23.144-23.144" transform="translate(-198 -41)"/><path class="ce" d="M310.988,521.057h22.2a22.672,22.672,0,1,0-22.672,22.672,22.68,22.68,0,0,0,22.672-22.672" transform="translate(-198 -41)"/><path class="cf" d="M310.988,521.057h21.727a22.2,22.2,0,1,0-22.2,22.2,22.207,22.207,0,0,0,22.2-22.2" transform="translate(-198 -41)"/><path class="cg" d="M310.988,521.057h21.255a21.727,21.727,0,1,0-21.727,21.727,21.735,21.735,0,0,0,21.727-21.727" transform="translate(-198 -41)"/><path class="ch" d="M310.988,521.057H331.77a21.255,21.255,0,1,0-21.255,21.255,21.262,21.262,0,0,0,21.255-21.255" transform="translate(-198 -41)"/><path class="ci" d="M310.988,521.057H331.3a20.782,20.782,0,1,0-20.782,20.782A20.79,20.79,0,0,0,331.3,521.057" transform="translate(-198 -41)"/><path class="cj" d="M310.988,521.057h19.838a20.31,20.31,0,1,0-20.31,20.31,20.317,20.317,0,0,0,20.31-20.31" transform="translate(-198 -41)"/><path class="ck" d="M310.988,521.057h19.365a19.838,19.838,0,1,0-19.838,19.838,19.845,19.845,0,0,0,19.838-19.838" transform="translate(-198 -41)"/><path class="cl" d="M310.988,521.057h18.893a19.365,19.365,0,1,0-19.365,19.365,19.372,19.372,0,0,0,19.365-19.365" transform="translate(-198 -41)"/><path class="cm" d="M310.988,521.057h18.421a18.893,18.893,0,1,0-18.893,18.893,18.9,18.9,0,0,0,18.893-18.893" transform="translate(-198 -41)"/><path class="cn" d="M310.988,521.057h17.948a18.421,18.421,0,1,0-18.421,18.421,18.427,18.427,0,0,0,18.421-18.421" transform="translate(-198 -41)"/><path class="co" d="M310.988,521.057h17.476A17.948,17.948,0,1,0,310.516,539a17.955,17.955,0,0,0,17.948-17.948" transform="translate(-198 -41)"/><path class="cp" d="M310.988,521.057h17a17.476,17.476,0,1,0-17.476,17.476,17.482,17.482,0,0,0,17.476-17.476" transform="translate(-198 -41)"/><path class="cq" d="M310.988,521.057h16.531a17,17,0,1,0-17,17,17.01,17.01,0,0,0,17-17" transform="translate(-198 -41)"/><path class="cr" d="M310.988,521.057h16.059a16.531,16.531,0,1,0-16.531,16.531,16.537,16.537,0,0,0,16.531-16.531" transform="translate(-198 -41)"/><path class="cs" d="M310.988,521.057h15.587a16.059,16.059,0,1,0-16.059,16.059,16.065,16.065,0,0,0,16.059-16.059" transform="translate(-198 -41)"/><path class="ct" d="M310.988,521.057H326.1a15.587,15.587,0,1,0-15.587,15.587A15.592,15.592,0,0,0,326.1,521.057" transform="translate(-198 -41)"/><path class="cu" d="M310.988,521.057H325.63a15.114,15.114,0,1,0-15.114,15.114,15.12,15.12,0,0,0,15.114-15.114" transform="translate(-198 -41)"/><path class="cv" d="M310.988,521.057h14.17A14.642,14.642,0,1,0,310.516,535.7a14.647,14.647,0,0,0,14.642-14.642" transform="translate(-198 -41)"/><path class="cw" d="M310.988,521.057h13.7a14.17,14.17,0,1,0-14.17,14.17,14.175,14.175,0,0,0,14.17-14.17" transform="translate(-198 -41)"/><path class="cx" d="M310.988,521.057h13.225a13.7,13.7,0,1,0-13.7,13.7,13.7,13.7,0,0,0,13.7-13.7" transform="translate(-198 -41)"/><path class="cy" d="M310.988,521.057h12.753a13.225,13.225,0,1,0-13.225,13.225,13.23,13.23,0,0,0,13.225-13.225" transform="translate(-198 -41)"/><path class="cz" d="M310.988,521.057h12.28a12.753,12.753,0,1,0-12.753,12.753,12.757,12.757,0,0,0,12.753-12.753" transform="translate(-198 -41)"/><path class="da" d="M310.988,521.057H322.8a12.28,12.28,0,1,0-12.28,12.28,12.285,12.285,0,0,0,12.28-12.28" transform="translate(-198 -41)"/><path class="db" d="M310.988,521.057h11.336a11.808,11.808,0,1,0-11.808,11.808,11.812,11.812,0,0,0,11.808-11.808" transform="translate(-198 -41)"/><path class="dc" d="M310.988,521.057h10.863a11.336,11.336,0,1,0-11.336,11.336,11.34,11.34,0,0,0,11.336-11.336" transform="translate(-198 -41)"/><path class="dd" d="M310.988,521.057h10.391a10.863,10.863,0,1,0-10.863,10.863,10.867,10.867,0,0,0,10.863-10.863" transform="translate(-198 -41)"/><path class="de" d="M310.988,521.057h9.919a10.391,10.391,0,1,0-10.391,10.391,10.395,10.395,0,0,0,10.391-10.391" transform="translate(-198 -41)"/><path class="df" d="M310.988,521.057h9.446a9.919,9.919,0,1,0-9.919,9.919,9.922,9.922,0,0,0,9.919-9.919" transform="translate(-198 -41)"/><path class="dg" d="M310.988,521.057h8.974a9.446,9.446,0,1,0-9.446,9.446,9.45,9.45,0,0,0,9.446-9.446" transform="translate(-198 -41)"/><path class="dh" d="M310.988,521.057h8.5a8.974,8.974,0,1,0-8.974,8.974,8.977,8.977,0,0,0,8.974-8.974" transform="translate(-198 -41)"/><path class="di" d="M310.988,521.057h8.029a8.5,8.5,0,1,0-8.5,8.5,8.5,8.5,0,0,0,8.5-8.5" transform="translate(-198 -41)"/><path class="dj" d="M310.988,521.057h7.557a8.029,8.029,0,1,0-8.029,8.03,8.032,8.032,0,0,0,8.029-8.03" transform="translate(-198 -41)"/><path class="dk" d="M310.988,521.057h7.085a7.557,7.557,0,1,0-7.557,7.557,7.56,7.56,0,0,0,7.557-7.557" transform="translate(-198 -41)"/><path class="dl" d="M310.988,521.057H317.6a7.085,7.085,0,1,0-7.085,7.085,7.087,7.087,0,0,0,7.085-7.085" transform="translate(-198 -41)"/><path class="dm" d="M310.988,521.057h6.14a6.613,6.613,0,1,0-6.613,6.613,6.615,6.615,0,0,0,6.613-6.613" transform="translate(-198 -41)"/><path class="dn" d="M310.988,521.057h5.668a6.14,6.14,0,1,0-6.14,6.14,6.142,6.142,0,0,0,6.14-6.14" transform="translate(-198 -41)"/><path class="do" d="M310.988,521.057h5.2a5.668,5.668,0,1,0-5.668,5.668,5.67,5.67,0,0,0,5.668-5.668" transform="translate(-198 -41)"/><path class="dp" d="M310.988,521.057h4.723a5.2,5.2,0,1,0-5.2,5.2,5.2,5.2,0,0,0,5.2-5.2" transform="translate(-198 -41)"/><path class="dq" d="M310.988,521.057h4.251a4.723,4.723,0,1,0-4.723,4.723,4.725,4.725,0,0,0,4.723-4.723" transform="translate(-198 -41)"/><path class="dr" d="M310.988,521.057h3.779a4.251,4.251,0,1,0-4.251,4.251,4.252,4.252,0,0,0,4.251-4.251" transform="translate(-198 -41)"/><path class="ds" d="M310.988,521.057h3.306a3.779,3.779,0,1,0-3.779,3.779,3.78,3.78,0,0,0,3.779-3.779" transform="translate(-198 -41)"/><path class="dt" d="M310.988,521.057h2.834a3.306,3.306,0,1,0-3.306,3.306,3.307,3.307,0,0,0,3.306-3.306" transform="translate(-198 -41)"/><path class="du" d="M310.988,521.057h2.362a2.834,2.834,0,1,0-2.834,2.834,2.835,2.835,0,0,0,2.834-2.834" transform="translate(-198 -41)"/><path class="dv" d="M310.988,521.057h1.889a2.362,2.362,0,1,0-2.362,2.362,2.362,2.362,0,0,0,2.362-2.362" transform="translate(-198 -41)"/><path class="dw" d="M310.988,521.057h1.417a1.889,1.889,0,1,0-1.889,1.889,1.89,1.89,0,0,0,1.889-1.889" transform="translate(-198 -41)"/><path class="dx" d="M310.988,521.057h0.945a1.417,1.417,0,1,0-1.417,1.417,1.417,1.417,0,0,0,1.417-1.417" transform="translate(-198 -41)"/><path class="dy" d="M310.988,521.057h0.472a0.945,0.945,0,1,0-.945.945,0.945,0.945,0,0,0,.945-0.945" transform="translate(-198 -41)"/><path class="dz" d="M310.988,521.057h0a0.472,0.472,0,1,0-.472.472,0.472,0.472,0,0,0,.472-0.472" transform="translate(-198 -41)"/></g><path class="ea" d="M310.525,470.222c-17.984,0-32.734,22.763-32.734,50.826,0,28.081,14.75,50.844,32.734,50.844,17.966,0,32.716-22.763,32.716-50.844,0-28.063-14.75-50.826-32.716-50.826h0Zm29.482-20.32c4.006,19.152,18.757,28.979,21.469,59.647,6.612,74.236-12.415,107.868-18.757,131.8-16.169,60.42,44.376,50.323,44.9,75.547,0.521,27.039,41,3.36,19.781,25.1-15.253,15.648-142.021,10.348-157.292-1.042-29.1-21.6-45.526,14.5-51.347,9.45-5.947-5.174,37.387-32.339,36.471-55.228-1.545-38.95,51.868-11.911,72.708-80.721,8.408-27.811-36.74-25.745-38.034-52.784-0.647-14.606-9.181-56.521,6.2-85.5,15.4-28.979-3.485-35.177-13.708-76.32-12.936-52.137,4.006-76.194-10.726-156.268-11.911-64.408,30.129-75.4,34.531-127.02,3.881-46.047,7.636-51.347,9.055-58.21,4.132-19.4,27.039-14.355,57.168-16.942,22.511-1.94,20.194,9.827,21.092,20.05s1.545,19.134-9.055,21.469c13.061-1.545,19.924,69.205,5.947,83.829,11.911,4.9,22.637,79.41,2.587,86.021-38.681,12.666,4.276-12.684-9.306,34.531-10.223,35.447,16.3,60.545,5.821,96.891-9.45,33.111-37.908,25.35-29.5,65.7h0Z" transform="translate(-198 -41)"/><path class="eb" d="M343.115,367.385c0-2.461-4.276-6.216-1.545-7.761,4.384-1.815,10.079,2.587,11.121,4.653,1.545,2.982.251,7.115-1.563,9.7-1.294,1.294-8.264,1.042-9.181-.647-1.545-1.815,1.042-3.755,1.168-5.947h0Zm-1.419-3.5a22.058,22.058,0,0,1,6.989,0m4.653,2.084c-1.689,0-3.108,1.024-6.594,0m-3.629,1.671c1.94,0.269,4.006,1.419,6.719.647m2.982,2.461a58.909,58.909,0,0,0-8.282-.126m-2.964,1.024c1.8,0.4,2.318,1.815,6.719.916m1.689-11.121c-4.024-.791-6.09.377-6.09,0.377Zm-26.913-41.663c0-2.318,4.276-6.2,1.545-7.636-4.384-1.94-10.079,2.461-11.121,4.671-1.545,2.713-.251,7.115,1.563,9.558,1.024,1.437,8.139,1.168,9.181-.5,1.545-1.94-1.168-3.755-1.168-6.09h0Zm1.419-3.485a22.058,22.058,0,0,0-6.989,0m-4.653,1.94c1.689,0.126,2.982,1.024,6.468.251m3.755,1.419c-2.066.4-4.006,1.563-6.719,0.79m-2.982,2.318c2.192-.126,5.426,0,8.157,0m3.09,1.042c-1.8.521-2.318,1.815-6.719,0.9M316.2,313.828c4.024-.773,6.09.4,6.09,0.4Zm3.378,29.877c3.09-1.168,5.03-7.761,8.408-5.3,5.677,4.132,3.881,12.936,2.192,15.127-2.839,3.108-9.055,3.5-13.582,2.587-2.336-.647-6.342-8.66-5.569-10.852,1.563-2.857,5.821-.4,8.552-1.563h0Zm3.485-3.108a22.77,22.77,0,0,1,4.653,8.157m0.773,6.073c-1.419-1.8-3.611-2.964-4.779-7.366m-4.276-3.485c0.916,2.443.521,5.426,3.629,8.139m-1.168,4.4c-1.294-2.461-3.36-6.216-5.426-9.45m-3.36-2.964c0.773,2.192-.521,3.485,3.485,8.139m15.127-3.36c-1.671-4.9-4.527-6.845-4.527-6.845Zm-3.234,41.394c3.234,0.916,8.678-1.671,9.971,1.563,1.815,4.9-4.653,8.785-7.51,9.306-3.881.126-9.181-2.839-12.289-5.821-1.294-1.419.126-8.013,2.336-8.534,2.587-.647,4.653,2.587,7.492,3.485h0Zm4.527,0.126a14.28,14.28,0,0,1-1.024,6.737m-3.108,3.611c0.126-1.545-.9-3.234.647-6.073m-1.419-4.276c-0.521,1.815-2.587,3.108-1.94,6.216m-3.36,1.689c0.5-1.94.9-4.923,1.419-7.9m-0.916-3.234c-0.773,1.437-2.839,1.689-2.318,6.342m13.96,5.947c1.815-3.611.521-6.072,0.521-6.072Zm-12.019,14.229c3.755,0.916,10.726-3.09,11.642,1.042,1.294,5.821-7.636,11.39-11.121,12.163-4.671.9-10.348-2.461-13.2-5.569-1.545-1.671,1.815-10.223,4.4-11,3.36-1.168,5.174,2.713,8.282,3.36h0Zm5.551-.377a21.622,21.622,0,0,1-2.713,8.408M321,426.762c0.521-2.084-.4-4.15,2.587-8.031m-0.773-4.9c-1.437,2.318-4.024,4.132-3.755,7.887m-4.8,2.839c0.916-2.713,2.461-6.468,3.5-9.953m-0.4-3.881c-1.294,1.545-3.36,1.94-4.006,7.636m15.523,5.821c2.713-4.8,1.815-7.51,1.815-7.51Zm-4.653-141.914c2.964-.647,6.073-6.845,8.66-3.881,3.5,4.4,0,12.415-2.192,14.229-2.982,2.587-8.408,2.336-11.911.772-1.94-.772-3.485-9.181-2.066-10.726,1.815-2.336,4.923.252,7.51-.4h0Zm3.611-2.587a20.444,20.444,0,0,1,2.084,7.887m-1.042,6.09c-0.521-2.066-2.066-3.234-2.066-7.51m-2.713-3.755c0.252,2.461-.916,5.048,1.024,7.9m-2.066,4.258c-0.521-2.587-1.294-6.2-2.192-9.7m-2.084-3.108c-0.126,1.94-1.419,3.108.791,8.031m13.708-1.294c-0.269-4.923-2.21-6.863-2.21-6.863Zm10.223,20.427c2.318,1.94,7.618-.647,7.618,4.024,0,6.719-6.468,10.6-8.785,10.2-3.234-.377-6.594-5.174-8.031-9.558-0.9-2.21,2.587-10.744,4.276-10.744,2.336-.521,2.982,4.4,4.923,6.073h0Zm3.737,0.916a23.482,23.482,0,0,1-2.713,8.408m-3.881,4.258c0.772-2.192.4-4.527,2.587-8.139m0.269-5.444c-1.168,2.336-3.234,3.5-3.5,7.51M336.4,318.23c1.024-2.587,2.443-6.342,3.611-10.1m0.4-4.4c-1.168,1.437-2.587,1.437-3.755,7.51m9.576,10.6a16.918,16.918,0,0,0,2.192-7.761ZM308.585,719.356c1.294,3.234,7.115,5.7,5.3,9.181-2.982,5.174-10.618,2.587-12.684.269-2.839-2.731-3.881-9.2-3.36-13.582,0.4-2.587,6.989-6.216,8.8-4.527,2.443,1.8.773,5.677,1.94,8.66h0Zm3.09,3.881a18.209,18.209,0,0,1-6.324,4.006m-5.569-.126c1.689-.9,2.336-3.108,6.073-3.881m2.587-4.132c-1.94.9-4.527,0.252-6.594,2.964m-3.881-1.545c2.066-1.042,4.923-2.982,7.636-4.527m2.336-3.108c-1.94.4-3.108-1.168-6.737,2.461m4.15,15.9a7.857,7.857,0,0,0,5.3-4.132Zm-49.676-24.829c2.587,2.982,9.827,4.006,9.055,8.013-1.419,5.965-10.348,4.923-13.457,3.378-4.006-2.21-7.51-8.552-8.534-13.205-0.647-2.318,5.426-7.24,7.636-6.468,3.09,1.294,3.234,5.569,5.3,8.282h0Zm4.779,3.234a13.14,13.14,0,0,1-5.426,5.174m-5.821,1.294c1.419-1.294,1.419-3.485,5.048-5.048m1.15-4.779c-1.8,1.168-4.779,1.024-5.821,4.4m-5.031-.79a72.15,72.15,0,0,0,6.845-6.324m1.042-3.5c-1.419.773-3.36-.251-6.09,4.15m9.971,14.876c4.258-2.084,4.4-5.174,4.4-5.174Zm36.866-35.447c-3.36,2.066-9.7,1.419-10.869,4.779-1.419,5.174,6.468,6.216,9.576,5.444,4.4-1.042,9.953-5.7,12.666-9.2,1.563-1.8-1.15-7.24-3.36-6.845-3.108.252-5.048,4.006-8.013,5.821h0Zm-5.174,1.671a8.409,8.409,0,0,0,2.192,5.444m4.006,2.192c-0.252-1.419.521-3.108-1.8-5.3m1.024-4.132c1.168,1.294,3.5,1.671,2.982,4.9m4.4,0.126a33.084,33.084,0,0,1-2.857-6.468m0.647-3.09c1.042,0.9,2.857.377,3.234,4.527M287.1,693.881a4.945,4.945,0,0,1-1.15-5.174Z" transform="translate(-198 -41)"/><path class="ec" d="M308.063,674.6c2.461-7.636,7.115-36.866,13.96-43.208,6.989-6.468,2.731-17.337,8.929-28.853,0.4-.773-2.318-28.189,5.3-36.723m2.336,9.953c0.9,18.631-1.689,43.082-11.642,62.737-2.336,4.653-14.229,38.411-8.013,54.581" transform="translate(-198 -41)"/><path class="ea" d="M298.362,249.545c2.713,4.527,61.444,4.132,64.678,2.318s3.108-3.611.126-4.653c-9.055-3.108-42.813-1.94-59.5,0-2.066.251-8.408-7.761-5.947-7.51,17.068,2.336,56.916,3.378,74.757,2.336,1.815-.126,3.378-3.881,1.437-4.276-22.511-4.653-57.833-1.8-76.841-.9-4.276.252-8.929-11.39,0.252-8.013,16.044,5.821,54.329,4.132,74.774,3.09,5.3-.252,4.4-2.964.521-3.881-21.344-4.9-56.27-.126-79.05-1.8-3.485-.27-8.139-3.108-8.139-5.174,0-1.94,10.223-3.755,11.247-3.378,10.618,3.5,59.5,5.048,78.655,2.21,2.587-.4,5.3-3.5.521-4.15-24.074-3.36-63.133-2.066-87.71.521-7.51.772-5.3-11.516,1.419-9.7,18.757,4.923,58.479,5.7,83.434,2.21,2.713-.4,3.5-4.024,1.168-4.4-27.56-4.527-55.1-3.36-83.308.377-10.6,1.437-3.36-10.6,1.94-9.827,22.637,3.36,59.378,6.468,82.41,1.563,2.192-.521,1.15-4.4-1.042-4.671-21.99-3.09-58.605-.647-80.721-0.9-2.964,0,.4-8.534,2.857-7.51,15.774,6.468,50.574,3.234,75.673.4,3.485-.4,1.024-2.066-2.084-2.713-20.05-4.4-48.76-1.815-69.852-.916-2.839.144-1.545-10.079,1.437-9.432,19.655,3.881,37.118,3.108,57.815,1.419,4.779-.4,2.192-4.276-0.521-4.923-16.942-3.611-40.873-2.713-54.06.521-4.8,1.168-1.437-11.121,1.545-10.348,17.858,4.8,41.645,4.923,64.157,1.168,3.108-.521,2.21-3.629-1.024-4.132-18.505-2.982-41.789-1.168-61.839-.521-2.713.126-3.36-11.121-.647-10.348,17.211,5.048,42.292,4.4,60.923,2.318,4.527-.5,5.444-4.006.126-5.426-17.589-4.653-40.747,1.419-58.982-.647-2.066-.252-2.192-9.306-0.126-8.534,17.714,6.845,44.753,5.048,63.133,3.234,2.587-.269,6.2-4.006.9-5.048-13.978-2.713-49.281-3.234-60.024-.252-4.9,1.419-6.073-10.348-3.485-10.223,17.84,0.9,41.519,4.653,60.024,1.024,6.594-1.294,4.258-4.779,1.024-5.174-18.757-2.318-42.04-2.192-56.144.144-8.66,1.419-6.468-10.869-3.485-10.348,16.421,2.964,42.292,3.611,59.755,1.15,3.5-.377,7.384-2.318-0.126-4.527-17.068-5.031-52.766-.126-59.108-0.773-3.234-.377-3.234-10.6.252-10.223,17.732,2.084,35.968,3.881,54.078,1.294,2.587-.377,5.426-3.234-0.4-5.174-17.337-5.821-39.831-1.545-51.221-.126-4.006.521-5.7-10.87,0.9-9.576,15.523,2.982,33.9,5.048,51.365.79,6.342-1.563,6.845-4.8.9-5.318-18.361-1.545-33.758-2.587-52.263,1.042-7.115,1.419-3.234-9.055-.9-8.408a140.619,140.619,0,0,0,49.676,2.066c6.719-.9,8.282-5.426,2.066-6.073-18.236-1.94-42.813-1.94-50.844.9-3.881,1.419-3.36-9.432.4-8.929,10.869,1.563,31.818,4.024,48.382.916,8.534-1.563,4.653-6.594,1.545-6.989-17.589-2.192-41.915-.647-47.861,1.294-9.306,2.982-8.534,16.942-9.055,28.979-0.377,9.7-1.024,22.763-1.94,32.213-0.773,8.785-.773,18.235-1.671,26.769-0.647,8.408-1.94,17.337-3.378,25.476-0.773,4.024-3.234,8.408-5.551,12.037-2.982,5.048-3.755,8.408-6.09,13.061-1.671,3.5-3.485,7.24-5.174,10.744-1.8,3.881-4.006,7.887-4.384,12.019-0.4,4.15-.4,8.678,1.671,12.432,2.21,4.132,6.989,4.779,9.45,12.145a93.273,93.273,0,0,0,7.115,15.666h0Z" transform="translate(-198 -41)"/><path class="ed" d="M341.822,85.911c-12.684,0-22.889.9-22.889,2.192s10.2,2.336,22.889,2.336S364.71,89.4,364.71,88.1s-10.2-2.192-22.889-2.192h0Z" transform="translate(-198 -41)"/><path class="ed" d="M341.426,73.227c-12.54,0-22.763.9-22.763,2.192s10.223,2.336,22.763,2.336c12.684,0,22.907-1.042,22.907-2.336s-10.223-2.192-22.907-2.192h0Z" transform="translate(-198 -41)"/><path class="ed" d="M341.947,61.459c-13.582,0-24.578.9-24.578,2.192s11,2.336,24.578,2.336c13.708,0,24.577-1.042,24.577-2.336s-10.869-2.192-24.577-2.192h0Z" transform="translate(-198 -41)"/><path class="ed" d="M341.7,48.254c-12.684,0-22.907.916-22.907,2.21s10.223,2.318,22.907,2.318c12.54,0,22.763-1.024,22.763-2.318s-10.223-2.21-22.763-2.21h0Z" transform="translate(-198 -41)"/><path class="ed" d="M342.073,100.913c-14.481,0-26.248.9-26.248,2.192s11.768,2.336,26.248,2.336c14.5,0,26.266-1.042,26.266-2.336s-11.768-2.192-26.266-2.192h0Z" transform="translate(-198 -41)"/><path class="ed" d="M343.115,114.5c-14.624,0-26.392.9-26.392,2.192s11.768,2.336,26.392,2.336c14.481,0,26.266-1.042,26.266-2.336S357.6,114.5,343.115,114.5h0Z" transform="translate(-198 -41)"/><path class="ed" d="M342.217,128.976c-14.5,0-26.141.916-26.141,2.21s11.642,2.318,26.141,2.318c14.481,0,26.123-1.024,26.123-2.318s-11.642-2.21-26.123-2.21h0Z" transform="translate(-198 -41)"/><path class="ed" d="M341.822,140.887c-14.75,0-26.644.9-26.644,2.192s11.893,2.336,26.644,2.336c14.624,0,26.518-1.042,26.518-2.336s-11.894-2.192-26.518-2.192h0Z" transform="translate(-198 -41)"/><path class="ed" d="M340.78,154.469c-15.379,0-27.937.9-27.937,2.192S325.4,159,340.78,159c15.4,0,27.955-1.042,27.955-2.336s-12.558-2.192-27.955-2.192h0Z" transform="translate(-198 -41)"/><path class="ed" d="M332.767,167.135c-13.978,0-25.35.916-25.35,2.21s11.372,2.318,25.35,2.318c14.229,0,25.476-1.024,25.476-2.318s-11.247-2.21-25.476-2.21h0Z" transform="translate(-198 -41)"/><path class="ed" d="M335.1,236.089c-16.169,0-29.374.9-29.374,2.192s13.205,2.336,29.374,2.336c16.421,0,29.356-1.042,29.356-2.336s-12.936-2.192-29.356-2.192h0Z" transform="translate(-198 -41)"/><path class="ed" d="M334.833,247.084c-14.1,0-25.476,1.024-25.476,2.318s11.372,2.461,25.476,2.461,25.35-1.168,25.35-2.461-11.247-2.318-25.35-2.318h0Z" transform="translate(-198 -41)"/><path class="ed" d="M336.4,180.592c-17.463,0-31.836.9-31.836,2.192s14.373,2.336,31.836,2.336c17.714,0,31.818-1.042,31.818-2.336s-14.1-2.192-31.818-2.192h0Z" transform="translate(-198 -41)"/><path class="ed" d="M341.175,192.486c-17.463,0-31.818.79-31.818,1.815,0,1.563,14.355,2.713,31.818,2.713,17.714,0,31.818-1.15,31.818-2.713,0-1.024-14.1-1.815-31.818-1.815h0Z" transform="translate(-198 -41)"/><path class="ed" d="M338.067,204.648c-17.463,0-31.818.773-31.818,1.815,0,1.545,14.355,2.713,31.818,2.713,17.732,0,31.818-1.168,31.818-2.713,0-1.042-14.085-1.815-31.818-1.815h0Z" transform="translate(-198 -41)"/><path class="ed" d="M338.067,215.644c-17.463,0-31.818.773-31.818,1.815,0,1.545,14.355,2.713,31.818,2.713,17.732,0,31.818-1.168,31.818-2.713,0-1.042-14.085-1.815-31.818-1.815h0Z" transform="translate(-198 -41)"/><path class="ed" d="M336.126,227.411c-17.463,0-31.818.791-31.818,1.815,0,1.563,14.355,2.713,31.818,2.713,17.732,0,31.818-1.15,31.818-2.713,0-1.024-14.085-1.815-31.818-1.815h0Z" transform="translate(-198 -41)"/><path class="ec" d="M303.141,582.491c4.923,17.337,30.021,8.929,12.415,34.028-13.96,19.924-3.234,39.7-15.253,45.023-15.145,6.719-28.207,17.589-27.29,42.543m81.871-134.134c-17.714,28.332-2.318,51.616-21.6,73.337-14.229,16.044,5.947,45.921,11.516,58.857m-51.1-303.338c5.426-17.193-8.678-11.893,5.426-27.021,14.1-15.145,1.042-30.147,3.234-67.786s2.066-19.4-25.35-77.613c-9.324-23.553,0-29.231,10.474-46.837,10.474-17.589,12.414-38.411,13.708-58.587S305.081,94.7,305.081,59M280.773,361.043s-2.21-21.469,7.492-40.873-5.174-45.921-5.3-58.21-15.4-19.673-18.631-40.226c2.461-15.792,6.863-24.452,15.145-37.01,8.264-12.54,9.306-23.284,15-37.89,5.7-14.624-.4-18.631,4.779-44.107,5.174-25.494-1.024-18.756,1.042-46.712M296.673,72.58c2.587,22.889.521,30.524-2.066,46.173-2.587,15.666-1.042,19.673-4.132,29.626-3.108,9.971-6.989,15-16.565,26.392-27.811,31.818-12.54,30-15.774,48.382-3.234,18.361-2.21,29.1,6.468,42.04,8.66,12.935,13.96,32.213,9.7,44.107-4.276,11.893-5.318,8.8-4.276,33.507s-7.51,33.507,6.468,65.7c13.978,32.213,28.063,36.615,22.637,47.358" transform="translate(-198 -41)"/></svg>