<svg xmlns="http://www.w3.org/2000/svg" viewBox="0 0 463.702 458.201"><defs><style>.a,.d{fill:none;stroke:#000;stroke-miterlimit:10;}.b{font-size:14px;}.b,.c,.e{fill:#1d1d1b;}.b,.e{font-family:AvantGarde Book;}.c,.e{font-size:18px;}.c{font-family:AvantGarde BookOblique;}.d{stroke-width:0.24px;}.f{fill:red;}.g{fill:#ff0;}.h{fill:lime;}.i{fill:aqua;}.j{fill:blue;}.k{fill:#f0f;}</style></defs><title>hp3</title><path class="a" d="M134,570.7H537.2V167.5H134V570.7Zm147.919-9.558h-0.1l-0.126.188-0.192,0-0.222.189-0.287,0-0.383,0-0.479,0-0.862-.555-1.493-1.292-2.013-2.013-2.913-3.067-3.671-4.068-4.643-4.993-6.088-6.489-7.327-7.968-9-10.561-10.8-14.3-14.335-22.486-16.925-30.753L181.7,414.7l-17.673-41.39-13.81-39.74-9.37-33.5L136,275.174l-1.172-17.335,1.846-11.912,0.7-1.839,0.78-1.672,0.9-1.518,0.96-1.342,1.064-1.189,1.115-1.028,1.207-.9,1.248-.754,1.31-.648,1.359-.532,1.411-.435,1.431-.338,1.488-.27,1.528-.215,1.568-.168,8.093-.353,8.223,0.133,8.576,0.522,9.242,0.866,10.041,1.177,11.034,1.449,12.236,1.706,13.527,1.964,14.982,2.2,16.459,2.452,17.956,2.688,19.362,2.9,20.488,3.05L346,257l20.4,3.048,19.854,2.965,17.987,2.665,15.9,2.386,13.53,2.03L445,271.769l9.552,1.433,8.281,1.242,7,1.051,5.662,0.828,4.395,0.659,3.422,0.513,2.559,0.384,1.669,0.251,1.374,0.206,1.073,0.161,1.078,0.162,0.927,0.139,0.62,0.093,0.31,0.047,0.155,0.023h0ZM134,570.7v5.76" transform="translate(-74 -167)"/><text class="b" transform="translate(50 432.498)">0.0</text><line class="a" x1="175.202" y1="403.7" x2="175.202" y2="409.46"/><text class="b" transform="translate(165.203 432.498)">0.2</text><line class="a" x1="290.402" y1="403.7" x2="290.402" y2="409.46"/><text class="b" transform="translate(280.398 432.498)">0.4</text><line class="a" x1="405.602" y1="403.7" x2="405.602" y2="409.46"/><text class="b" transform="translate(395.602 432.498)">0.6</text><text class="c" transform="translate(261.602 453.702)">u’</text><line class="a" x1="60.002" y1="403.7" x2="54.242" y2="403.7"/><text class="b" transform="translate(21.203 403.702)">0.0</text><line class="a" x1="60.002" y1="288.5" x2="54.242" y2="288.5"/><text class="b" transform="translate(21.203 288.506)">0.2</text><line class="a" x1="60.002" y1="173.3" x2="54.242" y2="173.3"/><text class="b" transform="translate(21.203 173.303)">0.4</text><line class="a" x1="60.002" y1="58.1" x2="54.242" y2="58.1"/><text class="b" transform="translate(21.203 58.1)">0.6</text><text class="c" transform="translate(0 202.1)">v’</text><text class="b" transform="translate(212.344 389.538)">400</text><rect class="d" x="205.342" y="392.542" width="4" height="4"/><text class="b" transform="translate(189.477 367.022)">450</text><rect class="d" x="182.475" y="370.02" width="4" height="4"/><text class="b" transform="translate(131.07 280.967)">475</text><rect class="d" x="124.069" y="283.966" width="4" height="4"/><text class="b" transform="translate(67.016 103.155)">500</text><rect class="d" x="60.018" y="106.154" width="4" height="4"/><text class="b" transform="translate(85.742 61.1)">525</text><rect class="d" x="78.738" y="64.106" width="4" height="4"/><text class="b" transform="translate(129.922 63.405)">550</text><rect class="d" x="122.917" y="66.41" width="4" height="4"/><text class="b" transform="translate(198.18 73.202)">575</text><rect class="d" x="191.173" y="76.202" width="4" height="4"/><text class="b" transform="translate(297.422 88.069)">600</text><rect class="d" x="290.418" y="91.063" width="4" height="4"/><text class="b" transform="translate(389.086 101.952)">675-780</text><rect class="d" x="417.08" y="109.956" width="4" height="4"/><text class="e" transform="translate(160.805 29.295)">Example monitor gamut</text><polygon class="a" points="307 101.374 172.009 85.302 127.766 80.034 138.399 156.495 159.312 306.873 217.197 226.329 307 101.374"/><path class="f" d="M384.962,268.3a4,4,0,1,0-4,4,4,4,0,0,0,4-4" transform="translate(-74 -167)"/><path class="d" d="M384.962,268.3a4,4,0,1,0-4,4,4,4,0,0,0,4-4" transform="translate(-74 -167)"/><path class="g" d="M250.082,252.34a4,4,0,1,0-4,4,4,4,0,0,0,4-4" transform="translate(-74 -167)"/><path class="d" d="M250.082,252.34a4,4,0,1,0-4,4,4,4,0,0,0,4-4" transform="translate(-74 -167)"/><path class="h" d="M205.8,247.06a4,4,0,1,0-4,4,4,4,0,0,0,4-4" transform="translate(-74 -167)"/><path class="d" d="M205.8,247.06a4,4,0,1,0-4,4,4,4,0,0,0,4-4" transform="translate(-74 -167)"/><path class="i" d="M216.362,323.5a4,4,0,1,0-4,4,4,4,0,0,0,4-4" transform="translate(-74 -167)"/><path class="d" d="M216.362,323.5a4,4,0,1,0-4,4,4,4,0,0,0,4-4" transform="translate(-74 -167)"/><path class="j" d="M237.362,473.86a4,4,0,1,0-4,4,4,4,0,0,0,4-4" transform="translate(-74 -167)"/><path class="d" d="M237.362,473.86a4,4,0,1,0-4,4,4,4,0,0,0,4-4" transform="translate(-74 -167)"/><path class="k" d="M295.2,393.34a4,4,0,1,0-4,4,4,4,0,0,0,4-4" transform="translate(-74 -167)"/><path class="d" d="M295.2,393.34a4,4,0,1,0-4,4,4,4,0,0,0,4-4m-48.72-79.68a4,4,0,1,0-4,4,4,4,0,0,0,4-4" transform="translate(-74 -167)"/></svg>