<svg xmlns="http://www.w3.org/2000/svg" viewBox="0 0 298.843 301.091">
  <defs>
    <style>
      .a, .c, .g, .n {
        fill: none;
      }

      .a, .b, .c, .d, .e, .f, .g, .n {
        stroke: #1d1d1b;
        stroke-miterlimit: 11.474;
      }

      .a {
        stroke-width: 2.02px;
      }

      .b {
        fill: #9d9d9c;
      }

      .b, .c, .d, .e, .f, .n {
        stroke-width: 0.22px;
      }

      .b, .d, .e, .f, .o {
        fill-rule: evenodd;
      }

      .d {
        fill: #c7ddc9;
      }

      .e {
        fill: #e8bebf;
      }

      .f {
        fill: #b7d0ee;
      }

      .g {
        stroke-width: 12.02px;
      }

      .h, .i, .j {
        font-size: 13.966px;
      }

      .h, .i, .j, .k, .l, .m, .o, .p, .q {
        fill: #1d1d1b;
      }

      .h, .i, .j, .k, .l, .m, .p, .q {
        font-family: Helvetica Neue;
      }

      .h {
        letter-spacing: 2.101px;
      }

      .i {
        letter-spacing: 3.151px;
      }

      .k, .l, .m, .p, .q {
        font-size: 12.022px;
      }

      .k {
        letter-spacing: 2px;
      }

      .l {
        letter-spacing: 1px;
      }

      .n {
        stroke-dasharray: 1.1 1.1;
      }

      .p {
        letter-spacing: 1px;
      }

      .q {
        letter-spacing: 6.001px;
      }
    </style>
  </defs>
  <title>retinac</title>
  <g>
    <path class="a" d="M402.85,406.308l0.07,6.91m13.11-5.61v4.82m-4.11-5.69,0.36,6.48m-4.17-6.77v6.92m-10.3-7.92v7.77m-4.39-7.13v7.35" transform="translate(-156 -245.76)"/>
    <path class="b" d="M383.27,408.538c3.09,0,5.61,1.3,5.61,2.88,0,1.51-2.52,2.74-5.61,2.74s-5.62-.79-5.62-2.31c0-1.58,2.52-3.31,5.62-3.31h0Z" transform="translate(-156 -245.76)"/>
    <path class="c" d="M421.14,412.428c1.51-.36,1.58-5.76,0-6.05-11.88-1.94-16.71-2.01-28.66-.93-1.29.07-.5,2.52-1.8,2.59-1.44.07-.72-1.51-2.23-1.73-4.9-.79-6.26.22-11.3,0.86-0.87.08-1.01,1.52-1.95,1.3-1.73-.43-1.08-2.52-2.88-3.1-2.88-.93-2.73-1.15-5.61-0.21-1.52.43-1.37,2.37-1.73,4.1-0.58,2.02-1.08,3.96-.29,5.83,0.58,1.44,1.22,2.24,2.52,2.45,2.59,0.51,2.16.29,4.82-.36,1.73-.5,1.23-2.3,3.03-2.66,0.65-.15,1.15,1.8,1.8,1.87,5.61,0.79,6.62-.43,12.31-0.79,0.86-.07.22-2.31,1.15-2.45s1.23,1.37,2.16,1.3c12.31-.8,16.78,1.08,28.66-2.02h0Z" transform="translate(-156 -245.76)"/>
    <path class="a" d="M401.19,532.958l0.08,6.91m13.1-5.62v4.83m-4.1-5.69,0.36,6.48m-4.18-6.77v6.91m-10.3-7.92v7.78m-4.39-7.13v7.35" transform="translate(-156 -245.76)"/>
    <path class="b" d="M381.61,535.188c3.1,0,5.62,1.3,5.62,2.88,0,1.51-2.52,2.74-5.62,2.74s-5.62-.8-5.62-2.31c0-1.58,2.52-3.31,5.62-3.31h0Z" transform="translate(-156 -245.76)"/>
    <path class="c" d="M419.48,539.078c1.51-.36,1.59-5.76,0-6.05-11.88-1.94-16.7-2.02-28.65-.94-1.3.08-.51,2.52-1.8,2.6-1.44.07-.72-1.52-2.24-1.73-4.89-.79-6.26.21-11.3,0.86-0.86.07-1.01,1.51-1.94,1.3-1.73-.43-1.08-2.52-2.88-3.1-2.88-.93-2.74-1.15-5.62-0.21-1.51.43-1.37,2.37-1.73,4.1-0.57,2.02-1.08,3.96-.29,5.83,0.58,1.44,1.23,2.23,2.52,2.45,2.6,0.5,2.16.29,4.83-.36,1.73-.5,1.22-2.3,3.02-2.66,0.65-.15,1.15,1.8,1.8,1.87,5.62,0.79,6.63-.43,12.31-0.79,0.87-.08.22-2.31,1.16-2.45s1.22,1.37,2.16,1.29c12.31-.79,16.77,1.08,28.65-2.01h0Z" transform="translate(-156 -245.76)"/>
    <path class="a" d="M402.92,367.928l0.07,6.92m13.11-5.62v4.82m-4.11-5.68,0.36,6.48m-4.17-6.77v6.91m-10.3-7.92v7.78m-4.39-7.13v7.34" transform="translate(-156 -245.76)"/>
    <path class="b" d="M383.34,370.168c3.09,0,5.61,1.29,5.61,2.88,0,1.51-2.52,2.73-5.61,2.73s-5.62-.79-5.62-2.3c0-1.59,2.52-3.31,5.62-3.31h0Z" transform="translate(-156 -245.76)"/>
    <path class="c" d="M421.21,374.048c1.51-.36,1.58-5.76,0-6.04-11.88-1.95-16.7-2.02-28.66-.94-1.29.07-.5,2.52-1.8,2.59-1.44.07-.72-1.51-2.23-1.73-4.89-.79-6.26.22-11.3,0.87-0.87.07-1.01,1.51-1.95,1.29-1.72-.43-1.08-2.52-2.88-3.09-2.88-.94-2.73-1.15-5.61-0.22-1.51.43-1.37,2.38-1.73,4.11-0.58,2.01-1.08,3.96-.29,5.83,0.58,1.44,1.23,2.23,2.52,2.45,2.59,0.5,2.16.28,4.83-.36,1.72-.51,1.22-2.31,3.02-2.67,0.65-.14,1.15,1.8,1.8,1.87,5.62,0.8,6.62-.43,12.31-0.79,0.87-.07.22-2.3,1.15-2.45s1.23,1.37,2.16,1.3c12.32-.79,16.78,1.08,28.66-2.02h0Z" transform="translate(-156 -245.76)"/>
    <path class="a" d="M393.78,505.308v6.62m9.86-4.75v4.25m3.03-3.31,0.07,2.81m-5.98-4.68v5.76m-4.03-6.48-0.07,6.91m-6.41-6.84,0.14,7.41m-3.38-7.2v6.63" transform="translate(-156 -245.76)"/>
    <path class="b" d="M377.65,508.328c2.52,0,4.61,1.01,4.61,2.24,0,1.15-2.09,2.16-4.61,2.16s-4.54-.65-4.54-1.8c0-1.23,2.02-2.6,4.54-2.6h0Z" transform="translate(-156 -245.76)"/>
    <path class="c" d="M410.7,510.348c1.22-.29,1.58-1.87.29-2.23-9.29-2.16-14.55-5.47-24.12-3.17-1.37.36-1.66,3.53-2.74,3.53-1.15.07-.72-1.51-2.3-1.8-4.04-.65-7.28.07-8.64,0.93a2.721,2.721,0,0,1-2.02.65c-1.44-.36-0.86-1.94-2.38-2.37-2.37-.72-2.23-0.72-4.6-0.22-3.24.79,1.65,1.94-.58,3.31-1.37.87,3.46,0.94,1.44,4.32-0.65,1.08-1.51,1.87-.5,2.02,2.16,0.43,1.8.21,3.96-.29,1.44-.36,1-1.73,2.52-2.02,0.5-.14.57,0.51,2.08,1.23,1.88,0.79,5.04,1.29,9.36-.43,1.95-.72,1.23-1.88,1.95-2.02,0.79-.07.65,1.58,3.31,2.09,4.75,0.93,13.18-1.15,22.97-3.53h0Z" transform="translate(-156 -245.76)"/>
    <path class="a" d="M397.02,429.568v6.62m9.86-4.75v4.25m3.03-3.32,0.07,2.81M404,430.5v5.76m-4.03-6.48-0.07,6.91m-6.41-6.84,0.14,7.42m-3.38-7.2v6.62" transform="translate(-156 -245.76)"/>
    <path class="b" d="M380.89,432.588c2.52,0,4.61,1.01,4.61,2.23,0,1.15-2.09,2.16-4.61,2.16s-4.54-.65-4.54-1.8c0-1.22,2.02-2.59,4.54-2.59h0Z" transform="translate(-156 -245.76)"/>
    <path class="c" d="M413.94,434.608c1.22-.29,1.58-1.88.29-2.24-9.29-2.16-14.55-5.47-24.12-3.16-1.37.36-1.66,3.52-2.74,3.52-1.15.08-.72-1.51-2.3-1.8-4.04-.64-7.28.08-8.64,0.94a2.764,2.764,0,0,1-2.02.65c-1.44-.36-0.86-1.95-2.38-2.38-2.37-.72-2.23-0.72-4.6-0.21-3.24.79,1.65,1.94-.58,3.31-1.37.86,3.46,0.93,1.44,4.32-0.65,1.08-1.51,1.87-.5,2.01,2.16,0.44,1.8.22,3.96-.28,1.44-.36,1-1.73,2.52-2.02,0.5-.14.57,0.5,2.08,1.22,1.88,0.8,5.04,1.3,9.36-.43,1.95-.72,1.23-1.87,1.95-2.01,0.79-.08.65,1.58,3.31,2.08,4.75,0.94,13.18-1.15,22.97-3.52h0Z" transform="translate(-156 -245.76)"/>
    <path class="a" d="M397.02,450.158v6.62m9.86-4.75v4.25m3.03-3.31,0.07,2.8m-5.98-4.68v5.76m-4.03-6.48-0.07,6.92m-6.41-6.84,0.14,7.41m-3.38-7.2v6.63" transform="translate(-156 -245.76)"/>
    <path class="b" d="M380.89,453.178c2.52,0,4.61,1.01,4.61,2.23,0,1.16-2.09,2.16-4.61,2.16s-4.54-.64-4.54-1.8c0-1.22,2.02-2.59,4.54-2.59h0Z" transform="translate(-156 -245.76)"/>
    <path class="c" d="M413.94,455.2c1.22-.29,1.58-1.87.29-2.23-9.29-2.16-14.55-5.48-24.12-3.17-1.37.36-1.66,3.53-2.74,3.53-1.15.07-.72-1.52-2.3-1.8-4.04-.65-7.28.07-8.64,0.93a2.721,2.721,0,0,1-2.02.65c-1.44-.36-0.86-1.94-2.38-2.38-2.37-.72-2.23-0.72-4.6-0.21-3.24.79,1.65,1.94-.58,3.31-1.37.86,3.46,0.94,1.44,4.32-0.65,1.08-1.51,1.87-.5,2.02,2.16,0.43,1.8.21,3.96-.29,1.44-.36,1-1.73,2.52-2.02,0.5-.14.57,0.51,2.08,1.23,1.88,0.79,5.04,1.29,9.36-.44,1.95-.72,1.23-1.87,1.95-2.01,0.79-.07.65,1.58,3.31,2.09,4.75,0.93,13.18-1.16,22.97-3.53h0Z" transform="translate(-156 -245.76)"/>
    <path class="a" d="M394.64,349.358v6.62m9.87-4.75v4.25m3.02-3.31,0.07,2.8m-5.97-4.68v5.76m-4.04-6.48-0.07,6.92m-6.41-6.84,0.15,7.41m-3.39-7.2v6.63" transform="translate(-156 -245.76)"/>
    <path class="b" d="M378.51,352.378c2.52,0,4.61,1.01,4.61,2.23,0,1.16-2.09,2.16-4.61,2.16s-4.53-.64-4.53-1.8c0-1.22,2.01-2.59,4.53-2.59h0Z" transform="translate(-156 -245.76)"/>
    <path class="c" d="M411.56,354.4c1.23-.29,1.59-1.87.29-2.23-9.29-2.16-14.54-5.48-24.12-3.17-1.37.36-1.66,3.53-2.74,3.53-1.15.07-.72-1.52-2.3-1.8-4.03-.65-7.27.07-8.64,0.93a2.72,2.72,0,0,1-2.02.65c-1.44-.36-0.86-1.94-2.37-2.38-2.38-.72-2.23-0.72-4.61-0.21-3.24.79,1.66,1.94-.58,3.31-1.36.86,3.46,0.94,1.44,4.32-0.64,1.08-1.51,1.87-.5,2.02,2.16,0.43,1.8.21,3.96-.29,1.44-.36,1.01-1.73,2.52-2.02,0.5-.14.58,0.51,2.09,1.23,1.87,0.79,5.04,1.29,9.36-.44,1.94-.72,1.22-1.87,1.94-2.01,0.79-.07.65,1.58,3.31,2.09,4.76,0.93,13.18-1.16,22.97-3.53h0Z" transform="translate(-156 -245.76)"/>
    <path class="a" d="M405.51,485.578l0.08,6.91m13.1-5.61v4.82m-4.1-5.69,0.36,6.48m-4.18-6.76v6.91m-10.3-7.92v7.77m-4.39-7.12v7.34" transform="translate(-156 -245.76)"/>
    <path class="b" d="M385.93,487.808c3.1,0,5.62,1.3,5.62,2.88,0,1.52-2.52,2.74-5.62,2.74s-5.62-.79-5.62-2.3c0-1.59,2.52-3.32,5.62-3.32h0Z" transform="translate(-156 -245.76)"/>
    <path class="c" d="M423.8,491.7c1.51-.36,1.59-5.76,0-6.05-11.88-1.94-16.7-2.01-28.65-.93-1.3.07-.51,2.52-1.8,2.59-1.44.07-.72-1.51-2.24-1.73-4.89-.79-6.26.22-11.3,0.87-0.86.07-1.01,1.51-1.94,1.29-1.73-.43-1.08-2.52-2.88-3.09-2.88-.94-2.74-1.16-5.62-0.22-1.51.43-1.37,2.38-1.73,4.1-0.57,2.02-1.08,3.96-.29,5.84,0.58,1.44,1.23,2.23,2.52,2.44,2.6,0.51,2.16.29,4.83-.36,1.73-.5,1.22-2.3,3.02-2.66,0.65-.14,1.15,1.8,1.8,1.87,5.62,0.79,6.63-.43,12.31-0.79,0.87-.07.22-2.3,1.16-2.45s1.22,1.37,2.16,1.3c12.31-.79,16.77,1.08,28.65-2.02h0Z" transform="translate(-156 -245.76)"/>
    <path class="d" d="M363.11,354.828c-6.84.86-12.82,1.8-19.95,0.43-2.73-.5-0.5-6.05-5.47-6.05-6.34,0-2.09,4.83-5.76,5.04-7.63.44-18.94,0.22-26.35-.21-1.08-.07-1.66,1.44-0.79,1.51,7.05,1.01,19,.43,26.13.43,4.03,0,.43,6.77,6.41,6.77,6.19,0.07,2.09-6.34,4.9-6.05,7.34,0.87,14.25,1.3,21.31.15,0.93-.15.57-2.16-0.43-2.02h0Z" transform="translate(-156 -245.76)"/>
    <path class="d" d="M360.95,373.768c-9,.86-16.78,1.8-26.14.43-3.67-.51-0.72-6.05-7.2-6.05-8.28,0-2.81,4.82-7.56,5.04-10.01.43-14.11-.36-24.7,1.01-1.44.14-6.33,5.76-5.47,6.19,1.51,0.79,2.45-2.16,7.27-3.46,5.98-1.72,14.04-1.36,19.3-1.36s2.88,6.12,10.73,6.12c7.99,0.07,2.73-6.34,6.41-6.05,9.57,0.86,18.64,1.29,27.93.14,1.3-.14.72-2.16-0.57-2.01h0Z" transform="translate(-156 -245.76)"/>
    <path class="d" d="M363.11,411.128c-6.84.87-12.82,1.8-19.88,0.44-2.8-.51-0.57-6.05-5.54-6.05-6.34,0-2.09,4.82-5.76,5.04-7.56.43-18.86,0.21-26.28-.22-1.15-.07-1.73,1.44-0.86,1.51,7.12,1.01,19,.44,26.2.44,3.96,0,.36,6.76,6.41,6.76,6.12,0.08,2.09-6.33,4.83-6.04,7.34,0.86,14.25,1.29,21.31.14,1.01-.14.57-2.16-0.43-2.02h0Z" transform="translate(-156 -245.76)"/>
    <path class="d" d="M364.98,434.168c-9.94.87-18.58,1.8-28.87,0.44-4.04-.51-0.8-6.05-8-6.05-9.14,0-3.09,4.82-8.35,5.04-11.01.43-18-8.07-28.87-7.78-1.66.07,9,3.82,10.08,4.25,8.86,3.31,7.06,5.26,17.42,5.26,5.76,0,.58,6.76,9.29,6.76,8.86,0.08,2.95-6.33,7.06-6.04,10.58,0.86,20.59,1.29,30.81.14,1.44-.14.87-2.16-0.57-2.02h0Z" transform="translate(-156 -245.76)"/>
    <path class="b" d="M327.68,431.008c1.66,0,2.95,1.72,2.95,3.88,0,2.24-1.29,3.96-2.95,3.96-1.58,0-2.95-1.72-2.95-3.96,0-2.16,1.37-3.88,2.95-3.88h0Z" transform="translate(-156 -245.76)"/>
    <path class="d" d="M367.07,455.918c-6.92.86-17.93,1.65-24.99,0.29-2.81-.51-0.57-6.05-5.54-6.05-6.34,0-2.09,4.82-5.76,5.04-7.56.43-17.14-.29-24.48-1.08-1.15-.07-0.79,1.58.07,1.65,7.06,1.08,16.27,1.16,23.47,1.16,3.96,0,.36,6.76,6.41,6.76,6.12,0.08,2.09-6.33,4.82-6.04,7.35,0.86,19.3,1.44,26.43.28,0.93-.14.5-2.16-0.43-2.01h0Z" transform="translate(-156 -245.76)"/>
    <path class="d" d="M364.19,489.608c-9.36.87-17.5,1.8-27.22,0.44-3.82-.51-0.79-6.05-7.56-6.05-8.64,0-2.95,4.82-7.92,5.04-10.37.43-11.88,1.01-22.03,0.57-1.51-.07-2.31,1.44-1.15,1.52,9.72,1,12.09-.36,21.88-0.36,5.4,0,.58,6.76,8.79,6.76,8.35,0.08,2.81-6.33,6.62-6.04,10.08,0.86,19.51,1.29,29.16.14,1.37-.14.79-2.16-0.57-2.02h0Z" transform="translate(-156 -245.76)"/>
    <path class="d" d="M361.95,510.278c-8.49.86-15.76,1.8-24.55,0.43-3.45-.5-0.72-6.05-6.84-6.05-7.77,0-2.66,4.9-7.13,5.04-9.36.43-23.32,0.22-32.47-.21-1.37-.08-2.09,1.44-1.08,1.51,8.79,1.08,23.55.43,32.33,0.43,4.97,0,.58,6.77,7.99,6.77,7.56,0.07,2.52-6.34,5.98-6.05,9.07,0.86,17.57,1.3,26.35.14,1.15-.14.65-2.16-0.58-2.01h0Z" transform="translate(-156 -245.76)"/>
    <path class="d" d="M360.73,538.208c-6.84.87-12.82,1.8-19.87,0.44-2.81-.51-0.58-6.05-5.55-6.05-6.33,0-2.08,4.82-5.76,5.04-7.56.43-18.86,0.21-26.28-.22-1.15-.07-1.72,1.44-0.86,1.51,7.13,1.01,19.01.44,26.21,0.44,3.96,0,.36,6.76,6.41,6.76,6.12,0.08,2.08-6.33,4.82-6.04,7.34,0.86,14.26,1.29,21.31.14,1.01-.14.58-2.16-0.43-2.02h0Z" transform="translate(-156 -245.76)"/>
    <path class="e" d="M239.41,261.658c0.5,15.19-.86,142.49-0.86,157.83,0,11.16-1.01,31.46,1.87,36.07,4.1,6.55,15.41-3.89,19.65-8.5a8.169,8.169,0,0,1,12.03-.29c4.39,4.76-.15,13.25,3.6,12.89,3.53-.29,12.09-1.58,13.82-2.01,14.4-3.32,12.89-4.32,13.83-3.1,0.36,0.5-3.75,1.37-13.04,4.39-3.74,1.23-11.66,1.95-15.12,2.38-3.88.43-11.3,5.47-13.1,1.37-5.33-12.46-20.52,3.81-24.12-6.77-2.09-6.27-.58-167.47-0.36-194.76,0-.79,1.8-0.22,1.8.5h0Z" transform="translate(-156 -245.76)"/>
    <path class="e" d="M256.98,271.168c0.36,15.55.57,36.86,0.57,52.41,0,11.38-.72,32.11,1.44,36.79,3.03,6.7,9.8-2.95,12.96-7.63,2.45-3.6,6.56-3.96,9.08-.29,3.31,4.76-.08,13.47,2.66,13.18,2.66-.36,9.14-1.37,10.37-2.09,10.37-6.12,10.15-8.42,10.37-5.69,0.07,0.58-2.81,3.89-9.72,6.99-2.88,1.29-8.79,1.94-11.38,2.37-2.88.51-8.5,5.62-9.86,1.44-3.96-12.67-13.68,2.88-16.35-7.84-1.58-6.48-1.65-62.28-1.51-90.15,0-.79,1.37-0.21,1.37.51h0Z" transform="translate(-156 -245.76)"/>
    <path class="e" d="M251.22,266.848c0.43,15.26,1.37,88.84,1.37,104.11,0,11.16,0,31.17,2.59,35.78,3.67,6.55,1.08-7.2,4.89-11.73,2.88-3.53,7.78-3.89,10.73-.29,3.89,4.68-.14,13.25,3.24,12.89,3.1-.36,9.51-0.65,10.44-2.45,3.75-7.13.07-23.33,1.3-24.77,4.97-5.62,1.8,1.08,1.8,5.26,0,6.84-.15,11.16-0.29,14.76-0.14,3.52-2.16,7.34-.43,10.29,2.16,3.82,19.44-3.24,15.41,1.15-1.8,1.95-15.12.29-15.56,2.09-0.43,2.09.58,2.88,0.58,5.69,0,6.48,2.16,3.74.86,5.9-1.65,2.74-2.52-10.08-2.88-14.83,0.94-4.82-8.56-1.94-11.73-1.51-3.46.5-5.76,4.75-8.86,7.13-4.25,3.24-8.49,1.37-11.66-9.15-1.95-6.33-3.6-113.47-3.39-140.83,0-.79,1.59-0.21,1.59.51h0Z" transform="translate(-156 -245.76)"/>
    <path class="e" d="M244.16,266.488c0.51,15.19.15,198.86,0.15,214.12,0,11.16-.65,31.25,2.23,35.86,4.1,6.55,1.15-7.2,5.4-11.81a8.157,8.157,0,0,1,12.02-.29c4.39,4.76-.14,13.25,3.6,12.89,3.53-.29,10.66-0.65,11.74-2.37,4.1-7.2,1.65-12.96,2.23-15.7,2.3-10.22,23.47-12.89,10.73-8.57-11.23,3.89-10.23,11.74-9.29,16.78,0.36,1.65,5.62-2.09,5.33.86-0.15.94-6.05,0.15-6.34,1.95-1.37,8.13.87,15.76,1.51,21.31,0.8,6.41,18.58,3.67,17.14,5.83-0.86,1.3-17.57,1.87-18.43-.86-1.8-6.05-1.8-13.76-2.02-16.06,1.01-4.9-9.65-1.94-13.1-1.51-3.89.43-6.48,4.68-9.94,7.13-4.68,3.24-9.43,1.36-13.03-9.22-2.09-6.26-2.02-223.56-1.73-250.85,0-.79,1.8-0.21,1.8.51h0Z" transform="translate(-156 -245.76)"/>
    <path class="f" d="M361.38,349.428c-1.59-.07-13.25-1.01-14.4,4.54-1.08,5.61,1.65,31.24-.58,37.08-5.04,13.46-8.28-6.2-15.33-5.55-5.62.51-9.44,9.43-3.96,17.43,7.12,10.36,16.92-12.46,17.71.72,0.79,7.48-.43,15.12-0.58,22.53-0.5,21.6-3.81,47.67-2.09,69.12,2.67,6.55,19.44,3.75,24.27.36,6.62-4.61-19.51,6.7-21.75-.86-2.37-8.07-.93-35.43-0.28-46.51,1-5.48,12.16-2.16,17.28-1.08,1.8,0.36,5.11,7.84,4.03,2.8-1.3-8.78-18.72-4.82-20.09-6.62-2.3.79-.29-18.5,1.44-20.66,3.17-3.89,16.85-4.47,16.85-6.77,0-2.59-16.71,4.32-17.07,4.1-1.58-.72.94-16.13,1.44-22.1a131.913,131.913,0,0,0,.72-16.13c-0.14-5.9-1.29-23.76.65-28.37,1.51-3.53,18.65-3.6,11.74-4.03h0Z" transform="translate(-156 -245.76)"/>
    <line class="g" x1="282.35" y1="101.079" x2="282.42" y2="301.089"/>
    <polygon class="c" points="0.11 164.439 45.9 164.369 45.97 156.448 55.47 173.149 45.97 188.849 45.97 181.929 0.11 181.929 0.11 164.439 0.11 164.439"/>
    <text class="h" transform="translate(3.778 177.827) scale(0.952 1)">Light</text> 
    <text class="k" transform="translate(255.075 10.303)">choroid</text>
    <text class="l" transform="translate(106.411 10.303)">ganglion cell</text>
    <text class="m" transform="translate(253.419 41.842)">rod</text>
    <text class="k" transform="translate(220.231 77.756)">cone</text>

    <line class="n" x1="110.99" y1="19.208" x2="110.99" y2="95.889"/>
    <polygon class="o" points="113.58 95.389 110.99 100.208 108.39 95.389 113.58 95.389 113.58 95.389"/>
    <line class="n" x1="281.99" y1="14.749" x2="281.99" y2="91.359"/>
    <polygon class="o" points="284.58 90.849 281.99 95.679 279.39 90.849 284.58 90.849 284.58 90.849"/>
    <line class="n" x1="263.99" y1="46.208" x2="263.99" y2="113.889"/>
    <polygon class="o" points="266.58 113.389 263.99 118.209 261.39 113.389 266.58 113.389 266.58 113.389"/>
    <line class="n" x1="236.99" y1="82.208" x2="236.99" y2="95.889"/>
    <polygon class="o" points="239.58 95.389 236.99 100.208 234.39 95.389 239.58 95.389 239.58 95.389"/>
    <text class="p" transform="translate(115.411 77.756)">bipolar cell</text>
  
    <line class="n" x1="164.99" y1="82.208" x2="164.99" y2="100.428"/>
    <polygon class="o" points="167.58 99.929 164.99 104.748 162.39 99.929 167.58 99.929 167.58 99.929"/>
    <line class="n" x1="196.45" y1="46.208" x2="196.45" y2="95.889"/>
    <polygon class="o" points="199.04 95.389 196.45 100.208 193.86 95.389 199.04 95.389 199.04 95.389"/>
    <path class="b" d="M275.84,355.328c1.73,0,3.1,2.6,3.1,5.84,0,3.16-1.37,5.76-3.1,5.76s-3.09-2.6-3.09-5.76c0-3.24,1.36-5.84,3.09-5.84h0Z" transform="translate(-156 -245.76)"/>
    <path class="b" d="M265.4,397.6c2.59,0,4.68,2.52,4.68,5.69s-2.09,5.68-4.68,5.68c-2.66,0-4.75-2.52-4.75-5.68s2.09-5.69,4.75-5.69h0Z" transform="translate(-156 -245.76)"/>
    <path class="b" d="M265.26,449.648c2.23,0,4.17,2.52,4.17,5.69s-1.94,5.69-4.17,5.69c-2.31,0-4.18-2.52-4.18-5.69s1.87-5.69,4.18-5.69h0Z" transform="translate(-156 -245.76)"/>
    <path class="b" d="M256.4,508.768c2.23,0,4.18,2.52,4.18,5.68s-1.95,5.69-4.18,5.69c-2.3,0-4.17-2.52-4.17-5.69s1.87-5.68,4.17-5.68h0Z" transform="translate(-156 -245.76)"/>
    <path class="b" d="M337.4,351.658c1.08,0,2.02,1.73,2.02,3.89,0,2.23-.94,3.96-2.02,3.96s-2.01-1.73-2.01-3.96c0-2.16.93-3.89,2.01-3.89h0Z" transform="translate(-156 -245.76)"/>
    <path class="b" d="M327.25,370.6c1.44,0,2.66,1.73,2.66,3.89,0,2.23-1.22,3.96-2.66,3.96-1.51,0-2.74-1.73-2.74-3.96,0-2.16,1.23-3.89,2.74-3.89h0Z" transform="translate(-156 -245.76)"/>
    <path class="b" d="M337.4,407.968c1.15,0,2.09,1.72,2.09,3.88,0,2.24-.94,3.96-2.09,3.96-1.08,0-2.01-1.72-2.01-3.96,0-2.16.93-3.88,2.01-3.88h0Z" transform="translate(-156 -245.76)"/>
    <path class="b" d="M336.25,452.608c1.15,0,2.09,1.72,2.09,3.88,0,2.24-.94,3.96-2.09,3.96-1.08,0-2.02-1.72-2.02-3.96,0-2.16.94-3.88,2.02-3.88h0Z" transform="translate(-156 -245.76)"/>
    <path class="b" d="M328.98,486.448c1.51,0,2.81,1.72,2.81,3.88,0,2.24-1.3,3.96-2.81,3.96s-2.81-1.72-2.81-3.96c0-2.16,1.3-3.88,2.81-3.88h0Z" transform="translate(-156 -245.76)"/>
    <path class="b" d="M330.2,507.108c1.37,0,2.52,1.73,2.52,3.89,0,2.23-1.15,3.96-2.52,3.96s-2.52-1.73-2.52-3.96c0-2.16,1.15-3.89,2.52-3.89h0Z" transform="translate(-156 -245.76)"/>
    <path class="b" d="M335.03,535.048c1.15,0,2.08,1.72,2.08,3.88,0,2.24-.93,3.96-2.08,3.96-1.08,0-2.02-1.72-2.02-3.96,0-2.16.94-3.88,2.02-3.88h0Z" transform="translate(-156 -245.76)"/>
    <path class="b" d="M332.15,388.308c2.52,0,4.53,3.1,4.53,6.98,0,3.82-2.01,6.99-4.53,6.99-2.45,0-4.54-3.17-4.54-6.99,0-3.88,2.09-6.98,4.54-6.98h0Z" transform="translate(-156 -245.76)"/>
    <text class="m" transform="translate(127.364 41.842)">horizontal cell</text>

  </g>
</svg>
