<svg xmlns="http://www.w3.org/2000/svg" xmlns:xlink="http://www.w3.org/1999/xlink" viewBox="0 -10 87.482 499.061"><defs><style>.a,.ea,.eb{fill:none;}.a{clip-rule:evenodd;}.b{clip-path:url(#a);}.c{fill:#fff;}.d{fill:#fefefe;}.e{fill:#fcfcfc;}.f{fill:#fbfbfb;}.g{fill:#f9f9f9;}.h{fill:#f8f8f8;}.i{fill:#f6f6f6;}.j{fill:#f5f5f5;}.k{fill:#f4f4f3;}.l{fill:#f2f2f2;}.m{fill:#f1f1f1;}.n{fill:#efefef;}.o{fill:#eee;}.p{fill:#ececec;}.q{fill:#ebebeb;}.r{fill:#e9e9e9;}.s{fill:#e8e8e8;}.t{fill:#e6e6e6;}.u{fill:#e5e5e5;}.v{fill:#e3e3e3;}.w{fill:#e2e2e2;}.x{fill:#e1e0e0;}.y{fill:#dfdfdf;}.z{fill:#dededd;}.aa{fill:#dcdcdc;}.ab{fill:#dbdbda;}.ac{fill:#d9d9d9;}.ad{fill:#d8d8d7;}.ae{fill:#d6d6d6;}.af{fill:#d5d4d4;}.ag{fill:#d3d3d3;}.ah{fill:#d1d1d1;}.ai{fill:#d0d0d0;}.aj{fill:#cecece;}.ak{fill:#cdcdcc;}.al{fill:#cbcbcb;}.am{fill:#cac9c9;}.an{fill:#c8c8c8;}.ao{fill:#c7c6c6;}.ap{fill:#c5c5c5;}.aq{fill:#c3c3c3;}.ar{fill:#c2c2c1;}.as{fill:silver;}.at{fill:#bfbfbe;}.au{fill:#bdbdbd;}.av{fill:#bcbcbb;}.aw{fill:#bababa;}.ax{fill:#b8b8b8;}.ay{fill:#b7b7b6;}.az{fill:#b5b5b5;}.ba{fill:#b4b4b3;}.bb{fill:#b2b2b2;}.bc{fill:#b0b0b0;}.bd{fill:#afafae;}.be{fill:#adadad;}.bf{fill:#ababab;}.bg{fill:#aaaaa9;}.bh{fill:#a8a8a8;}.bi{fill:#a6a6a6;}.bj{fill:#a5a5a4;}.bk{fill:#a3a3a2;}.bl{fill:#a1a1a1;}.bm{fill:#a09f9f;}.bn{fill:#9e9e9d;}.bo{fill:#9c9c9c;}.bp{fill:#9b9a9a;}.bq{fill:#999998;}.br{fill:#979796;}.bs{fill:#959595;}.bt{fill:#949493;}.bu{fill:#929291;}.bv{fill:#909090;}.bw{fill:#8f8e8e;}.bx{fill:#8d8d8c;}.by{fill:#8b8b8b;}.bz{fill:#8a8989;}.ca{fill:#888887;}.cb{fill:#868685;}.cc{fill:#848483;}.cd{fill:#828282;}.ce{fill:#818080;}.cf{fill:#7f7e7e;}.cg{fill:#7d7d7c;}.ch{fill:#7b7b7a;}.ci{fill:#797978;}.cj{fill:#777776;}.ck{fill:#757574;}.cl{fill:#737372;}.cm{fill:#717170;}.cn{fill:#6f6f6f;}.co{fill:#6e6d6d;}.cp{fill:#6c6b6b;}.cq{fill:#6a6969;}.cr{fill:#686867;}.cs{fill:#666665;}.ct{fill:#646463;}.cu{fill:#626261;}.cv{fill:#60605f;}.cw{fill:#5e5e5d;}.cx{fill:#5c5c5b;}.cy{fill:#5b5a5a;}.cz{fill:#595858;}.da{fill:#575656;}.db{fill:#555454;}.dc{fill:#525251;}.dd{fill:#50504f;}.de{fill:#4e4e4d;}.df{fill:#4c4c4b;}.dg{fill:#4a4a49;}.dh{fill:#484847;}.di{fill:#464545;}.dj{fill:#444342;}.dk{fill:#414140;}.dl{fill:#3f3f3e;}.dm{fill:#3d3d3c;}.dn{fill:#3b3b3a;}.do{fill:#393837;}.dp{fill:#363635;}.dq{fill:#343433;}.dr{fill:#323130;}.ds{fill:#2f2f2e;}.dt{fill:#2d2d2c;}.du{fill:#2a2a29;}.dv{fill:#282826;}.dw{fill:#252524;}.dx{fill:#222221;}.dy{fill:#20201e;}.dz{fill:#1d1d1b;}.ea,.eb{stroke:#1d1d1b;stroke-miterlimit:11.474;}.ea{stroke-width:0.22px;}.eb{stroke-width:0.5px;}.ec{fill:#9d9d9c;fill-rule:evenodd;}</style><clipPath id="a" transform="translate(-262 -157)"><path class="a" d="M296.438,464.677c10.01,0,18.22,12.67,18.22,28.29s-8.21,28.3-18.22,28.3-18.21-12.67-18.21-28.3,8.21-28.29,18.21-28.29h0Z"/></clipPath></defs><title>rod</title><g class="b"><path class="c" d="M296.706,492.972h33.388a33.651,33.651,0,1,0-33.651,33.651,33.663,33.663,0,0,0,33.651-33.651" transform="translate(-262 -157)"/><path class="c" d="M296.706,492.972h33.388a33.651,33.651,0,1,0-33.651,33.651,33.663,33.663,0,0,0,33.651-33.651" transform="translate(-262 -157)"/><path class="d" d="M296.706,492.972h33.125a33.388,33.388,0,1,0-33.388,33.388,33.4,33.4,0,0,0,33.388-33.388" transform="translate(-262 -157)"/><path class="e" d="M296.706,492.972h32.862A33.125,33.125,0,1,0,296.443,526.1a33.137,33.137,0,0,0,33.125-33.125" transform="translate(-262 -157)"/><path class="f" d="M296.706,492.972h32.6a32.862,32.862,0,1,0-32.862,32.862,32.874,32.874,0,0,0,32.862-32.862" transform="translate(-262 -157)"/><path class="g" d="M296.706,492.972h32.337a32.6,32.6,0,1,0-32.6,32.6,32.611,32.611,0,0,0,32.6-32.6" transform="translate(-262 -157)"/><path class="h" d="M296.706,492.972H328.78a32.337,32.337,0,1,0-32.337,32.337,32.348,32.348,0,0,0,32.337-32.337" transform="translate(-262 -157)"/><path class="i" d="M296.706,492.972h31.811a32.074,32.074,0,1,0-32.074,32.074,32.085,32.085,0,0,0,32.074-32.074" transform="translate(-262 -157)"/><path class="j" d="M296.706,492.972h31.548a31.811,31.811,0,1,0-31.811,31.811,31.822,31.822,0,0,0,31.811-31.811" transform="translate(-262 -157)"/><path class="k" d="M296.706,492.972h31.285a31.548,31.548,0,1,0-31.548,31.548,31.559,31.559,0,0,0,31.548-31.548" transform="translate(-262 -157)"/><path class="l" d="M296.706,492.972h31.022a31.285,31.285,0,1,0-31.285,31.285,31.3,31.3,0,0,0,31.285-31.285" transform="translate(-262 -157)"/><path class="m" d="M296.706,492.972h30.759a31.022,31.022,0,1,0-31.022,31.022,31.033,31.033,0,0,0,31.022-31.022" transform="translate(-262 -157)"/><path class="n" d="M296.706,492.972h30.5a30.759,30.759,0,1,0-30.759,30.759A30.77,30.77,0,0,0,327.2,492.972" transform="translate(-262 -157)"/><path class="o" d="M296.706,492.972h30.233a30.5,30.5,0,1,0-30.5,30.5,30.507,30.507,0,0,0,30.5-30.5" transform="translate(-262 -157)"/><path class="p" d="M296.706,492.972h29.97a30.233,30.233,0,1,0-30.233,30.233,30.244,30.244,0,0,0,30.233-30.233" transform="translate(-262 -157)"/><path class="q" d="M296.706,492.972h29.708a29.97,29.97,0,1,0-29.97,29.97,29.981,29.981,0,0,0,29.97-29.97" transform="translate(-262 -157)"/><path class="r" d="M296.706,492.972h29.445a29.708,29.708,0,1,0-29.708,29.708,29.718,29.718,0,0,0,29.708-29.708" transform="translate(-262 -157)"/><path class="s" d="M296.706,492.972h29.182a29.445,29.445,0,1,0-29.445,29.445,29.455,29.455,0,0,0,29.445-29.445" transform="translate(-262 -157)"/><path class="t" d="M296.706,492.972h28.919a29.182,29.182,0,1,0-29.182,29.182,29.192,29.192,0,0,0,29.182-29.182" transform="translate(-262 -157)"/><path class="u" d="M296.706,492.972h28.656a28.919,28.919,0,1,0-28.919,28.919,28.929,28.929,0,0,0,28.919-28.919" transform="translate(-262 -157)"/><path class="v" d="M296.706,492.972H325.1a28.656,28.656,0,1,0-28.656,28.656A28.666,28.666,0,0,0,325.1,492.972" transform="translate(-262 -157)"/><path class="w" d="M296.706,492.972h28.13a28.393,28.393,0,1,0-28.393,28.393,28.4,28.4,0,0,0,28.393-28.393" transform="translate(-262 -157)"/><path class="x" d="M296.706,492.972h27.867a28.13,28.13,0,1,0-28.13,28.13,28.14,28.14,0,0,0,28.13-28.13" transform="translate(-262 -157)"/><path class="y" d="M296.706,492.972h27.6a27.867,27.867,0,1,0-27.867,27.867,27.877,27.877,0,0,0,27.867-27.867" transform="translate(-262 -157)"/><path class="z" d="M296.706,492.972h27.341a27.6,27.6,0,1,0-27.6,27.6,27.614,27.614,0,0,0,27.6-27.6" transform="translate(-262 -157)"/><path class="aa" d="M296.706,492.972h27.079a27.341,27.341,0,1,0-27.341,27.341,27.351,27.351,0,0,0,27.341-27.341" transform="translate(-262 -157)"/><path class="ab" d="M296.706,492.972h26.816a27.079,27.079,0,1,0-27.079,27.079,27.088,27.088,0,0,0,27.079-27.079" transform="translate(-262 -157)"/><path class="ac" d="M296.706,492.972h26.553a26.816,26.816,0,1,0-26.816,26.816,26.825,26.825,0,0,0,26.816-26.816" transform="translate(-262 -157)"/><path class="ad" d="M296.706,492.972H323a26.553,26.553,0,1,0-26.553,26.553A26.562,26.562,0,0,0,323,492.972" transform="translate(-262 -157)"/><path class="ae" d="M296.706,492.972h26.027a26.29,26.29,0,1,0-26.29,26.29,26.3,26.3,0,0,0,26.29-26.29" transform="translate(-262 -157)"/><path class="af" d="M296.706,492.972H322.47A26.027,26.027,0,1,0,296.443,519a26.036,26.036,0,0,0,26.027-26.027" transform="translate(-262 -157)"/><path class="ag" d="M296.706,492.972h25.5a25.764,25.764,0,1,0-25.764,25.764,25.773,25.773,0,0,0,25.764-25.764" transform="translate(-262 -157)"/><path class="ah" d="M296.706,492.972h25.238a25.5,25.5,0,1,0-25.5,25.5,25.51,25.51,0,0,0,25.5-25.5" transform="translate(-262 -157)"/><path class="ai" d="M296.706,492.972h24.975a25.238,25.238,0,1,0-25.238,25.238,25.248,25.248,0,0,0,25.238-25.238" transform="translate(-262 -157)"/><path class="aj" d="M296.706,492.972h24.712a24.975,24.975,0,1,0-24.975,24.975,24.984,24.984,0,0,0,24.975-24.975" transform="translate(-262 -157)"/><path class="ak" d="M296.706,492.972h24.45a24.712,24.712,0,1,0-24.712,24.712,24.721,24.721,0,0,0,24.712-24.712" transform="translate(-262 -157)"/><path class="al" d="M296.706,492.972h24.187a24.45,24.45,0,1,0-24.45,24.45,24.459,24.459,0,0,0,24.45-24.45" transform="translate(-262 -157)"/><path class="am" d="M296.706,492.972H320.63a24.187,24.187,0,1,0-24.187,24.187,24.2,24.2,0,0,0,24.187-24.187" transform="translate(-262 -157)"/><path class="an" d="M296.706,492.972h23.661A23.924,23.924,0,1,0,296.443,516.9a23.932,23.932,0,0,0,23.924-23.924" transform="translate(-262 -157)"/><path class="ao" d="M296.706,492.972h23.4a23.661,23.661,0,1,0-23.661,23.661A23.67,23.67,0,0,0,320.1,492.972" transform="translate(-262 -157)"/><path class="ap" d="M296.706,492.972h23.135a23.4,23.4,0,1,0-23.4,23.4,23.407,23.407,0,0,0,23.4-23.4" transform="translate(-262 -157)"/><path class="aq" d="M296.706,492.972h22.872a23.135,23.135,0,1,0-23.135,23.135,23.144,23.144,0,0,0,23.135-23.135" transform="translate(-262 -157)"/><path class="ar" d="M296.706,492.972h22.609a22.872,22.872,0,1,0-22.872,22.872,22.881,22.881,0,0,0,22.872-22.872" transform="translate(-262 -157)"/><path class="as" d="M296.706,492.972h22.346a22.609,22.609,0,1,0-22.609,22.609,22.618,22.618,0,0,0,22.609-22.609" transform="translate(-262 -157)"/><path class="at" d="M296.706,492.972H318.79a22.346,22.346,0,1,0-22.346,22.346,22.355,22.355,0,0,0,22.346-22.346" transform="translate(-262 -157)"/><path class="au" d="M296.706,492.972h21.821a22.083,22.083,0,1,0-22.083,22.083,22.092,22.092,0,0,0,22.083-22.083" transform="translate(-262 -157)"/><path class="av" d="M296.706,492.972h21.558a21.821,21.821,0,1,0-21.821,21.821,21.829,21.829,0,0,0,21.821-21.821" transform="translate(-262 -157)"/><path class="aw" d="M296.706,492.972H318a21.558,21.558,0,1,0-21.558,21.558A21.566,21.566,0,0,0,318,492.972" transform="translate(-262 -157)"/><path class="ax" d="M296.706,492.972h21.032a21.295,21.295,0,1,0-21.295,21.295,21.3,21.3,0,0,0,21.295-21.295" transform="translate(-262 -157)"/><path class="ay" d="M296.706,492.972h20.769A21.032,21.032,0,1,0,296.443,514a21.04,21.04,0,0,0,21.032-21.032" transform="translate(-262 -157)"/><path class="az" d="M296.706,492.972h20.506a20.769,20.769,0,1,0-20.769,20.769,20.777,20.777,0,0,0,20.769-20.769" transform="translate(-262 -157)"/><path class="ba" d="M296.706,492.972h20.243a20.506,20.506,0,1,0-20.506,20.506,20.514,20.514,0,0,0,20.506-20.506" transform="translate(-262 -157)"/><path class="bb" d="M296.706,492.972h19.98a20.243,20.243,0,1,0-20.243,20.243,20.251,20.251,0,0,0,20.243-20.243" transform="translate(-262 -157)"/><path class="bc" d="M296.706,492.972h19.717a19.98,19.98,0,1,0-19.98,19.98,19.988,19.988,0,0,0,19.98-19.98" transform="translate(-262 -157)"/><path class="bd" d="M296.706,492.972h19.454a19.717,19.717,0,1,0-19.717,19.717,19.725,19.725,0,0,0,19.717-19.717" transform="translate(-262 -157)"/><path class="be" d="M296.706,492.972H315.9a19.454,19.454,0,1,0-19.454,19.454A19.462,19.462,0,0,0,315.9,492.972" transform="translate(-262 -157)"/><path class="bf" d="M296.706,492.972h18.929a19.192,19.192,0,1,0-19.192,19.192,19.2,19.2,0,0,0,19.192-19.192" transform="translate(-262 -157)"/><path class="bg" d="M296.706,492.972h18.666A18.929,18.929,0,1,0,296.443,511.9a18.936,18.936,0,0,0,18.929-18.929" transform="translate(-262 -157)"/><path class="bh" d="M296.706,492.972h18.4a18.666,18.666,0,1,0-18.666,18.666,18.673,18.673,0,0,0,18.666-18.666" transform="translate(-262 -157)"/><path class="bi" d="M296.706,492.972h18.14a18.4,18.4,0,1,0-18.4,18.4,18.41,18.41,0,0,0,18.4-18.4" transform="translate(-262 -157)"/><path class="bj" d="M296.706,492.972h17.877a18.14,18.14,0,1,0-18.14,18.14,18.147,18.147,0,0,0,18.14-18.14" transform="translate(-262 -157)"/><path class="bk" d="M296.706,492.972H314.32a17.877,17.877,0,1,0-17.877,17.877,17.884,17.884,0,0,0,17.877-17.877" transform="translate(-262 -157)"/><path class="bl" d="M296.706,492.972h17.351a17.614,17.614,0,1,0-17.614,17.614,17.621,17.621,0,0,0,17.614-17.614" transform="translate(-262 -157)"/><path class="bm" d="M296.706,492.972h17.088a17.351,17.351,0,1,0-17.351,17.351,17.358,17.358,0,0,0,17.351-17.351" transform="translate(-262 -157)"/><path class="bn" d="M296.706,492.972h16.826a17.088,17.088,0,1,0-17.088,17.088,17.095,17.095,0,0,0,17.088-17.088" transform="translate(-262 -157)"/><path class="bo" d="M296.706,492.972h16.563A16.826,16.826,0,1,0,296.443,509.8a16.832,16.832,0,0,0,16.826-16.826" transform="translate(-262 -157)"/><path class="bp" d="M296.706,492.972h16.3a16.563,16.563,0,1,0-16.563,16.563,16.569,16.569,0,0,0,16.563-16.563" transform="translate(-262 -157)"/><path class="bq" d="M296.706,492.972h16.037a16.3,16.3,0,1,0-16.3,16.3,16.306,16.306,0,0,0,16.3-16.3" transform="translate(-262 -157)"/><path class="br" d="M296.706,492.972H312.48a16.037,16.037,0,1,0-16.037,16.037,16.043,16.043,0,0,0,16.037-16.037" transform="translate(-262 -157)"/><path class="bs" d="M296.706,492.972h15.511a15.774,15.774,0,1,0-15.774,15.774,15.78,15.78,0,0,0,15.774-15.774" transform="translate(-262 -157)"/><path class="bt" d="M296.706,492.972h15.248a15.511,15.511,0,1,0-15.511,15.511,15.517,15.517,0,0,0,15.511-15.511" transform="translate(-262 -157)"/><path class="bu" d="M296.706,492.972h14.985a15.248,15.248,0,1,0-15.248,15.248,15.254,15.254,0,0,0,15.248-15.248" transform="translate(-262 -157)"/><path class="bv" d="M296.706,492.972h14.722a14.985,14.985,0,1,0-14.985,14.985,14.991,14.991,0,0,0,14.985-14.985" transform="translate(-262 -157)"/><path class="bw" d="M296.706,492.972h14.459a14.722,14.722,0,1,0-14.722,14.722,14.728,14.728,0,0,0,14.722-14.722" transform="translate(-262 -157)"/><path class="bx" d="M296.706,492.972h14.2a14.459,14.459,0,1,0-14.459,14.459A14.465,14.465,0,0,0,310.9,492.972" transform="translate(-262 -157)"/><path class="by" d="M296.706,492.972H310.64a14.2,14.2,0,1,0-14.2,14.2,14.2,14.2,0,0,0,14.2-14.2" transform="translate(-262 -157)"/><path class="bz" d="M296.706,492.972h13.671a13.934,13.934,0,1,0-13.934,13.934,13.939,13.939,0,0,0,13.934-13.934" transform="translate(-262 -157)"/><path class="ca" d="M296.706,492.972h13.408a13.671,13.671,0,1,0-13.671,13.671,13.676,13.676,0,0,0,13.671-13.671" transform="translate(-262 -157)"/><path class="cb" d="M296.706,492.972h13.145a13.408,13.408,0,1,0-13.408,13.408,13.413,13.413,0,0,0,13.408-13.408" transform="translate(-262 -157)"/><path class="cc" d="M296.706,492.972h12.882a13.145,13.145,0,1,0-13.145,13.145,13.15,13.15,0,0,0,13.145-13.145" transform="translate(-262 -157)"/><path class="cd" d="M296.706,492.972h12.619a12.882,12.882,0,1,0-12.882,12.882,12.887,12.887,0,0,0,12.882-12.882" transform="translate(-262 -157)"/><path class="ce" d="M296.706,492.972h12.356a12.619,12.619,0,1,0-12.619,12.619,12.624,12.624,0,0,0,12.619-12.619" transform="translate(-262 -157)"/><path class="cf" d="M296.706,492.972H308.8a12.356,12.356,0,1,0-12.356,12.356A12.361,12.361,0,0,0,308.8,492.972" transform="translate(-262 -157)"/><path class="cg" d="M296.706,492.972h11.83a12.093,12.093,0,1,0-12.093,12.093,12.1,12.1,0,0,0,12.093-12.093" transform="translate(-262 -157)"/><path class="ch" d="M296.706,492.972h11.568a11.83,11.83,0,1,0-11.83,11.83,11.835,11.835,0,0,0,11.83-11.83" transform="translate(-262 -157)"/><path class="ci" d="M296.706,492.972h11.3a11.568,11.568,0,1,0-11.568,11.568,11.572,11.572,0,0,0,11.568-11.568" transform="translate(-262 -157)"/><path class="cj" d="M296.706,492.972h11.042a11.3,11.3,0,1,0-11.3,11.3,11.309,11.309,0,0,0,11.3-11.3" transform="translate(-262 -157)"/><path class="ck" d="M296.706,492.972h10.779a11.042,11.042,0,1,0-11.042,11.042,11.046,11.046,0,0,0,11.042-11.042" transform="translate(-262 -157)"/><path class="cl" d="M296.706,492.972h10.516a10.779,10.779,0,1,0-10.779,10.779,10.783,10.783,0,0,0,10.779-10.779" transform="translate(-262 -157)"/><path class="cm" d="M296.706,492.972h10.253a10.516,10.516,0,1,0-10.516,10.516,10.52,10.52,0,0,0,10.516-10.516" transform="translate(-262 -157)"/><path class="cn" d="M296.706,492.972h9.99a10.253,10.253,0,1,0-10.253,10.253A10.257,10.257,0,0,0,306.7,492.972" transform="translate(-262 -157)"/><path class="co" d="M296.706,492.972h9.727a9.99,9.99,0,1,0-9.99,9.99,9.994,9.994,0,0,0,9.99-9.99" transform="translate(-262 -157)"/><path class="cp" d="M296.706,492.972h9.464a9.727,9.727,0,1,0-9.727,9.727,9.731,9.731,0,0,0,9.727-9.727" transform="translate(-262 -157)"/><path class="cq" d="M296.706,492.972h9.2a9.464,9.464,0,1,0-9.464,9.464,9.468,9.468,0,0,0,9.464-9.464" transform="translate(-262 -157)"/><path class="cr" d="M296.706,492.972h8.939a9.2,9.2,0,1,0-9.2,9.2,9.2,9.2,0,0,0,9.2-9.2" transform="translate(-262 -157)"/><path class="cs" d="M296.706,492.972h8.676a8.939,8.939,0,1,0-8.939,8.939,8.942,8.942,0,0,0,8.939-8.939" transform="translate(-262 -157)"/><path class="ct" d="M296.706,492.972h8.413a8.676,8.676,0,1,0-8.676,8.676,8.679,8.679,0,0,0,8.676-8.676" transform="translate(-262 -157)"/><path class="cu" d="M296.706,492.972h8.15a8.413,8.413,0,1,0-8.413,8.413,8.416,8.416,0,0,0,8.413-8.413" transform="translate(-262 -157)"/><path class="cv" d="M296.706,492.972h7.887a8.15,8.15,0,1,0-8.15,8.15,8.153,8.153,0,0,0,8.15-8.15" transform="translate(-262 -157)"/><path class="cw" d="M296.706,492.972h7.624a7.887,7.887,0,1,0-7.887,7.887,7.89,7.89,0,0,0,7.887-7.887" transform="translate(-262 -157)"/><path class="cx" d="M296.706,492.972h7.361a7.624,7.624,0,1,0-7.624,7.624,7.627,7.627,0,0,0,7.624-7.624" transform="translate(-262 -157)"/><path class="cy" d="M296.706,492.972h7.1a7.361,7.361,0,1,0-7.361,7.361,7.364,7.364,0,0,0,7.361-7.361" transform="translate(-262 -157)"/><path class="cz" d="M296.706,492.972h6.835a7.1,7.1,0,1,0-7.1,7.1,7.1,7.1,0,0,0,7.1-7.1" transform="translate(-262 -157)"/><path class="da" d="M296.706,492.972h6.572a6.835,6.835,0,1,0-6.835,6.835,6.838,6.838,0,0,0,6.835-6.835" transform="translate(-262 -157)"/><path class="db" d="M296.706,492.972h6.31a6.572,6.572,0,1,0-6.572,6.572,6.575,6.575,0,0,0,6.572-6.572" transform="translate(-262 -157)"/><path class="dc" d="M296.706,492.972h6.047a6.31,6.31,0,1,0-6.31,6.31,6.312,6.312,0,0,0,6.31-6.31" transform="translate(-262 -157)"/><path class="dd" d="M296.706,492.972h5.784a6.047,6.047,0,1,0-6.047,6.047,6.049,6.049,0,0,0,6.047-6.047" transform="translate(-262 -157)"/><path class="de" d="M296.706,492.972h5.521a5.784,5.784,0,1,0-5.784,5.784,5.786,5.786,0,0,0,5.784-5.784" transform="translate(-262 -157)"/><path class="df" d="M296.706,492.972h5.258a5.521,5.521,0,1,0-5.521,5.521,5.523,5.523,0,0,0,5.521-5.521" transform="translate(-262 -157)"/><path class="dg" d="M296.706,492.972h5a5.258,5.258,0,1,0-5.258,5.258,5.26,5.26,0,0,0,5.258-5.258" transform="translate(-262 -157)"/><path class="dh" d="M296.706,492.972h4.732a5,5,0,1,0-5,5,5,5,0,0,0,5-5" transform="translate(-262 -157)"/><path class="di" d="M296.706,492.972h4.469a4.732,4.732,0,1,0-4.732,4.732,4.734,4.734,0,0,0,4.732-4.732" transform="translate(-262 -157)"/><path class="dj" d="M296.706,492.972h4.206a4.469,4.469,0,1,0-4.469,4.469,4.471,4.471,0,0,0,4.469-4.469" transform="translate(-262 -157)"/><path class="dk" d="M296.706,492.972h3.943a4.206,4.206,0,1,0-4.206,4.206,4.208,4.208,0,0,0,4.206-4.206" transform="translate(-262 -157)"/><path class="dl" d="M296.706,492.972h3.681a3.943,3.943,0,1,0-3.943,3.943,3.945,3.945,0,0,0,3.943-3.943" transform="translate(-262 -157)"/><path class="dm" d="M296.706,492.972h3.418a3.681,3.681,0,1,0-3.681,3.681,3.682,3.682,0,0,0,3.681-3.681" transform="translate(-262 -157)"/><path class="dn" d="M296.706,492.972h3.155a3.418,3.418,0,1,0-3.418,3.418,3.419,3.419,0,0,0,3.418-3.418" transform="translate(-262 -157)"/><path class="do" d="M296.706,492.972H299.6a3.155,3.155,0,1,0-3.155,3.155,3.156,3.156,0,0,0,3.155-3.155" transform="translate(-262 -157)"/><path class="dp" d="M296.706,492.972h2.629a2.892,2.892,0,1,0-2.892,2.892,2.893,2.893,0,0,0,2.892-2.892" transform="translate(-262 -157)"/><path class="dq" d="M296.706,492.972h2.366a2.629,2.629,0,1,0-2.629,2.629,2.63,2.63,0,0,0,2.629-2.629" transform="translate(-262 -157)"/><path class="dr" d="M296.706,492.972h2.1a2.366,2.366,0,1,0-2.366,2.366,2.367,2.367,0,0,0,2.366-2.366" transform="translate(-262 -157)"/><path class="ds" d="M296.706,492.972h1.84a2.1,2.1,0,1,0-2.1,2.1,2.1,2.1,0,0,0,2.1-2.1" transform="translate(-262 -157)"/><path class="dt" d="M296.706,492.972h1.577a1.84,1.84,0,1,0-1.84,1.84,1.841,1.841,0,0,0,1.84-1.84" transform="translate(-262 -157)"/><path class="du" d="M296.706,492.972h1.314a1.577,1.577,0,1,0-1.577,1.577,1.578,1.578,0,0,0,1.577-1.577" transform="translate(-262 -157)"/><path class="dv" d="M296.706,492.972h1.052a1.314,1.314,0,1,0-1.314,1.314,1.315,1.315,0,0,0,1.314-1.314" transform="translate(-262 -157)"/><path class="dw" d="M296.706,492.972h0.789a1.052,1.052,0,1,0-1.052,1.052,1.052,1.052,0,0,0,1.052-1.052" transform="translate(-262 -157)"/><path class="dx" d="M296.706,492.972h0.526a0.789,0.789,0,1,0-.789.789,0.789,0.789,0,0,0,.789-0.789" transform="translate(-262 -157)"/><path class="dy" d="M296.706,492.972h0.263a0.526,0.526,0,1,0-.526.526,0.526,0.526,0,0,0,.526-0.526" transform="translate(-262 -157)"/><path class="dz" d="M296.706,492.972h0a0.263,0.263,0,1,0-.263.263,0.263,0.263,0,0,0,.263-0.263" transform="translate(-262 -157)"/></g><path class="ea" d="M296.438,464.677c10.01,0,18.22,12.67,18.22,28.29s-8.21,28.3-18.22,28.3-18.21-12.67-18.21-28.3,8.21-28.29,18.21-28.29h0Zm-12.16-12.46c-2.96,10.44-14.69,17.28-16.2,34.35-3.68,41.32,13.75,41.25,17.28,54.43,9,33.62,10.94,57.24,1.94,69.55-13.25,18.14-.58,28.66,16.7,24.12s47.16,14.18,45.29-18.65-43.41-24.48-51.26-63.86c-5.04-25.35,9.93-22.61,20.66-36.43,4.97-6.41,4.9-10.44,3.46-30.03s-33.91-29.01-25.71-52.27c4.61-12.96,11.38-34.56,4.76-67.18-6.27-30.96,6.19-48.45,2.37-52.77-2.3-2.59-2.01,8.85-5.04,16.56-4.75,12.02-4.82,14.69-5.04,12.24-0.29-3.82,4.18-17.21,5.76-25.78,0.87-4.68,3.1-3.31,4.97-7.27,4.68-9.72-7.34-13.61-9.86-45-2.02-25.63-2.74-53.78-3.24-57.67-2.09-16.13-1.59-35.35-5.84-47.88-1.15-3.31-4.1-.36-10.36-0.29s-8.72-1.15-11.38-.5c-4.18,1,1.44,147.81,8.78,167.54,1.8,4.97,14.19,2.09,15.77,6.84,1.73,5.18,2.59,11.59-.5,12.74-5.76,2.16-13.11-7.92-16.78-18.36-7.49-21.45-1.87-18.86-3.96-23.32-1.15-2.52-3.74,17.71-.93,24.4a101.056,101.056,0,0,1,8.06,33.34c1.15,20.59-11.88,30.67-6.05,50.9,5.26,18.44,22.75,17.86,16.35,40.25h0Zm11.73-127.8c-1.15,2.52-19.15,2.95-20.52,1.95s-1.58-2.09-.43-2.74c3.38-1.94,12.74-1.08,19.73-1.08,0.86,0,1.87-2.95.86-2.81a82.751,82.751,0,0,1-21.6,1.15c-0.79-.07-1.44-2.16-0.65-2.37,9.51-2.95,14.48-1.23,22.68-1.95,1.01-.07,1.73-3.09.58-2.73-7.13,2.23-13.61,2.37-22.25,1.8-2.23-.15-2.81-1.23-0.5-2.09,8.78-3.31,14.47-1.87,23.97-1.87a2.359,2.359,0,0,0,1.59-2.23,1.694,1.694,0,0,0-1.59-1.66c-4.6,1.66-17.56,2.81-25.63,1.22-1.08-.21-2.81-1.36-0.86-1.94,9.93-2.95,17.64-2.23,28.01-.79,3.16,0.43,2.37-6.34-.29-4.97-8.07,4.18-17.21,2.52-27.51,2.16-1,0-2.52-2.16-1.51-2.38,11.59-2.52,13.75-1.15,29.09-2.23,2.02-.14.29-3.96-0.79-3.81-9.72,1.44-18.15,2.59-28.15,1.44-0.94-.08-1.66-2.16-0.72-2.31,9.28-1.73,18.57-1.44,27.93-1.58,1.23,0-.14-4.75-1.22-4.18-6.63,3.6-15.7,2.81-26.35,1.3-1.37-.22-1.01-2.74.28-3.03,8.43-1.94,15.84,0,24.48-.28,1.23-.08.65-5.4-0.57-5.04-8.28,2.16-15.7,1.72-24.41.79-2.02-.22-0.94-2.45.22-2.74,8.28-2.16,14.32.36,22.53-.5,2.02-.22.87-5.4-0.36-4.97-7.56,2.66-12.45,2.52-22.03,1.08-1.94-.29-2.16-2.59-0.86-2.81,7.84-1.51,14.04.15,22.39-.57,1.15-.08,1.37-5.84.21-5.4-7.27,2.8-15.33,2.59-23.18,1.44-1.94-.29-2.3-2.24-0.07-3.03,7.41-2.59,14.69.65,22.39-.5,0.86-.15.94-5.19,0.07-4.75-7.49,3.81-14.9,2.52-22.68,1.51-1.08-.15-2.59-2.23-0.36-2.81,5.91-1.51,16.78-1.51,21.31.14,2.09,0.8,2.6-5.76,1.52-5.68-7.56.5-14.19,2.52-21.96,0.5-2.81-.72-1.8-2.66-0.44-2.88a53.046,53.046,0,0,1,20.31.14c3.67,0.8,2.73-6.04,1.44-5.76a53.1,53.1,0,0,1-21.89.58c-1.44-.22-3.1-1.3.07-2.52,7.2-2.81,18.94,0,21.6-.36,1.37-.22,1.37-5.9-0.07-5.69-7.49,1.15-15.05,1.73-22.68.29-1.08-.22-2.45-2.09.07-2.95,7.35-2.52,16.78-.36,21.53.43,1.73,0.29,2.45-6.05-.36-5.33a49.829,49.829,0,0,1-21.53.94c-2.59-.51-3.09-2.74-0.57-3.03,7.77-.86,14.32-1.87,22.1.15,3.02,0.79,1.37-5.04.36-4.68a45.232,45.232,0,0,1-20.95,1.15c-2.81-.5-3.46-3.02-0.87-3.38,7.71-1.08,18.08-1.08,21.46.5,1.66,0.79,1.44-5.26-.14-4.97-4.61.87-13.47,2.23-20.45,0.51-3.46-.87-1.73-2.88-0.43-3.1,7.41-1.22,13.53-.43,20.8,0,1.01,0.07,1.01-4.25-.07-4.1-12.45,1.29-14.25.64-21.45-.87-4.04-.86-1.66-1.8-0.58-2.3,4.03-1.8,17.21-2.09,21.31.43,1.3,0.79.87-2.81,0.72-4.03s0.29-2.45-3.24-1.59a53.281,53.281,0,0,1-19.15.15c-2.74-.51-2.45-2.38.07-3.1,7.13-2.01,12.96-.29,20.23-0.14,1.52,0,1.66-4.83.15-4.9-7.56-.29-12.82.87-20.09-0.29-2.81-.43-2.16-2.73-0.86-2.95,6.91-1.44,6.19-.79,20.73-0.21,1.51,0.07,1.23-4.61-.29-4.83-7.63-.93-13.24.65-19.87-0.36-3.38-.5-2.16-2.73-0.86-3.02,6.19-1.44,12.89.29,18.86-.79,1.08-.22,1.37-3.82.29-3.68-4.68.58-12.82,1.3-19.01,0.22-1.15-.14-2.52-2.16-0.5-2.81,5.04-1.65,13.97-1.58,19.22-.5,0.79,0.14.65-4.11-.65-3.96-5.83.57-12.02,1.29-18.21,0.14-1.3-.21-1.59-3.74-0.22-3.89,4.68-.57,14.62,1.01,18.29.36,0.94-.14.86-3.96-0.14-3.74a41.037,41.037,0,0,1-17.28.58c-1.08-.15-1.66-3.17-0.58-3.24,5.33-.51,13.25-0.94,18.14.14,2.16,0.5,1.66,14.33,3.32,20.38,1.44,5.25,1.15,11.23,1.87,16.56,0.57,4.68,1.29,9.43,1.58,14.11,0.36,6.77.94,13.46,1.15,20.16,0.22,5.4.58,10.8,0.94,16.05,0.36,4.9.36,10.16,0.72,14.91,0.29,4.68.79,9.65,1.44,14.18a24.961,24.961,0,0,0,2.3,6.7c1.3,2.81,1.59,4.68,2.6,7.27,0.72,1.94,1.44,4.03,2.16,5.98a24.714,24.714,0,0,1,1.87,6.69,15.985,15.985,0,0,1-.72,6.91c-0.94,2.31-3.1,1.73-4.11,5.84-0.64,2.66-1.15,6.33-2.23,8.85h0Z" transform="translate(-262 -157)"/><path class="eb" d="M317.4,595.207c-1.59.51-4.9-1.36-5.19,0.65-0.36,3.24,3.75,5.91,5.26,6.12,2.16,0.36,4.61-1.37,5.83-3.09,0.65-1.01-1.01-5.4-2.3-5.69-1.59-.58-2.16,1.51-3.6,2.01h0Zm-2.52-.14a13.746,13.746,0,0,0,1.44,4.39m2.3,2.59c-0.36-1.15,0-2.16-1.3-4.17m0.22-2.67c0.58,1.23,1.8,2.16,1.87,4.11m2.16,1.37c-0.57-1.37-1.22-3.39-1.8-5.19m0-2.16c0.65,1.01,1.66,1.08,2.02,4.03m-6.77,3.46c-1.37-2.38-1.01-3.89-1.01-3.89Zm-40.1-195.19c-1.59.5-4.9-1.37-5.19,0.65-0.36,3.24,3.75,5.9,5.26,6.12,2.16,0.36,4.61-1.37,5.83-3.1,0.65-1.01-1.01-5.4-2.3-5.69-1.59-.57-2.16,1.51-3.6,2.02h0Zm-2.52-.15a13.745,13.745,0,0,0,1.44,4.4m2.3,2.59c-0.36-1.15,0-2.16-1.3-4.18m0.22-2.66c0.58,1.22,1.8,2.16,1.87,4.1m2.16,1.37c-0.57-1.37-1.22-3.38-1.8-5.18m0-2.16c0.65,1,1.66,1.08,2.02,4.03m-6.77,3.45a5.783,5.783,0,0,1-1.01-3.88Zm11.45-19.36c-1.3,1.22-4.68,1.58-4.39,3.52,0.43,2.88,4.68,2.96,6.04,2.24,2.02-.94,3.75-3.75,4.4-5.91,0.36-1.22-2.16-4.1-3.39-3.6-1.51.36-1.51,2.52-2.66,3.75h0Zm-2.23,1.22a7.476,7.476,0,0,0,2.3,3.02m2.66,1.01c-0.64-.93-0.5-1.87-2.23-2.88m-0.43-2.45c0.86,0.72,2.16.87,2.66,2.45m2.24,0c-0.87-.86-1.88-2.3-2.81-3.38m-0.51-1.87c0.8,0.5,1.66-.08,2.74,2.23m-5.18,6.84a3.917,3.917,0,0,1-1.8-2.81Zm3.45,22.53c-1.29,1.23-4.68,1.59-4.39,3.53,0.43,2.88,4.68,2.95,6.05,2.23,2.01-.93,3.74-3.74,4.39-5.9,0.36-1.22-2.16-4.1-3.38-3.6-1.52.36-1.52,2.52-2.67,3.74h0Zm-2.23,1.23a7.476,7.476,0,0,0,2.3,3.02m2.67,1.01c-0.65-.94-0.51-1.87-2.23-2.88m-0.44-2.45c0.87,0.72,2.16.87,2.67,2.45m2.23,0c-0.86-.86-1.87-2.3-2.81-3.38m-0.5-1.88c0.79,0.51,1.65-.07,2.73,2.24m-5.18,6.84a3.917,3.917,0,0,1-1.8-2.81Zm0-51.63c-1.87-.93-3.53-5.11-5.33-3.67-2.59,2.16-.72,7.63.58,9.14,1.73,2.02,5.33,2.6,7.7,2.24,1.23-.22,2.74-5.12,1.87-6.27-1.08-1.73-3.16-.65-4.82-1.44h0Zm-2.23-2.16a12,12,0,0,0-1.73,4.61m0.29,3.89c0.5-1.15,1.58-1.66,1.73-4.39m2.01-1.88c-0.21,1.44.29,3.24-1.08,4.76m1.08,2.88c0.51-1.44,1.15-3.68,1.95-5.55m1.51-1.58c0,1.15.79,2.01-.94,4.75m-8.78-2.88c0.43-3.02,1.8-3.89,1.8-3.89Zm14.76,26.64c-1.66-.36-3.39-3.74-4.83-2.23-1.94,2.59.08,6.98,1.23,7.99,1.65,1.44,4.68,1.37,6.62.43,1.08-.36,2.02-5.11,1.15-5.97-1.15-1.3-2.73.14-4.17-.22h0Zm-2.09-1.44a13.726,13.726,0,0,0-1.15,4.54m0.65,3.38c0.21-1.22,1.08-1.87,1-4.18m1.66-2.16c-0.22,1.23.43,2.67-.58,4.4m1.08,2.3c0.29-1.44.87-3.53,1.3-5.33m1.08-1.87c0,1.22.79,1.87-.43,4.54m-7.56-.72a5.985,5.985,0,0,1,1.22-3.82Zm42.12,207.79c-0.51-1.44.65-4.11-.87-4.75-2.23-.72-3.96,2.59-4.03,3.96-0.07,1.87,1.51,4.32,2.88,5.54,0.65,0.72,3.67-.22,3.89-1.22,0.22-1.3-1.44-2.24-1.87-3.53h0Zm0-2.16a5.7,5.7,0,0,0-3.1.72m-1.65,1.73c0.79-.15,1.58.21,2.95-0.72m1.87,0.5c-0.86.5-1.44,1.44-2.88,1.22m-0.65,1.73a28.49,28.49,0,0,1,3.46-.93m1.58,0.28c-0.72.36-.65,1.23-2.73,1.23m-3.03-6.41a3.347,3.347,0,0,1,2.67-.43Zm-25.34-7.85c2.23-.29,5.04-2.45,6.55-1.29,2.3,1.87-1.01,4.89-2.66,5.54-2.24.94-6.27,0.58-8.57-.14-1.37-.36-1.87-3.68-0.72-4.32,1.51-.8,3.6.28,5.4,0.21h0Zm2.88-.93a4.823,4.823,0,0,1,.86,3.16m-1.15,2.38c-0.29-.86-1.22-1.37-0.86-3.02m-1.8-1.59c0,0.94-.94,1.87.21,3.17m-1.87,1.44c-0.22-.86-0.5-2.45-0.79-3.74m-1.3-1.3c-0.14.79-1.22,1.15,0,3.17m9.87,0a2.688,2.688,0,0,0-1.01-2.74Z" transform="translate(-262 -157)"/><path class="ea" d="M308.318,597.087c-1.51-1.52-4.89-9.58-5.61-11.52-1.73-4.25-1.01-6.7-1.95-10.3-0.93-3.53-1.87-8.71-3.38-11.95-1.15-2.74-1.51-5.83-2.16-8.21-1.44-4.75.43-11.23-3.46-15.26s-3.81-8.28-6.91-14.04c-1.8-3.32-3.09-1.52-5.83-7.13-0.65-1.3-1.3-5.04,1.3-5.76m-5.04-.87c-2.52,11.24,8.13,16.06,13.6,28.44,1.37,2.88-.14,6.12,2.31,10.66,4.68,8.93,7.99,29.66,10.65,44.64,0.65,3.67-2.95,3.46-4.03,3.46" transform="translate(-262 -157)"/><path class="ec" d="M277,234.207c5.33,0,9.65.5,9.65,1.29,0,0.65-4.32,1.23-9.65,1.23s-9.64-.58-9.64-1.23c0-.79,4.32-1.29,9.64-1.29h0Z" transform="translate(-262 -157)"/><path class="ec" d="M277.148,227.147c5.33,0,9.65.5,9.65,1.3,0,0.64-4.32,1.22-9.65,1.22s-9.65-.58-9.65-1.22c0-.8,4.32-1.3,9.65-1.3h0Z" transform="translate(-262 -157)"/><path class="ec" d="M276.928,220.527c5.76,0,10.37.5,10.37,1.22s-4.61,1.3-10.37,1.3-10.37-.58-10.37-1.3,4.61-1.22,10.37-1.22h0Z" transform="translate(-262 -157)"/><path class="ec" d="M277.078,213.247c5.32,0,9.64.51,9.64,1.3,0,0.65-4.32,1.22-9.64,1.22s-9.65-.57-9.65-1.22c0-.79,4.32-1.3,9.65-1.3h0Z" transform="translate(-262 -157)"/><path class="ec" d="M276,205.977c5.32,0.29,9.64,1.01,9.57,1.8,0,0.65-4.39,1.01-9.72.72s-9.57-1.08-9.57-1.73c0.07-.79,4.39-1.08,9.72-0.79h0Z" transform="translate(-262 -157)"/><path class="ec" d="M275.278,198.057c5.54,0,10.08.51,10.08,1.23s-4.54,1.29-10.08,1.29c-5.62,0-10.08-.57-10.08-1.29s4.46-1.23,10.08-1.23h0Z" transform="translate(-262 -157)"/><path class="ec" d="M275.2,189.567c5.55,0,10.08.5,10.08,1.22s-4.53,1.3-10.08,1.3c-5.61,0-10.08-.58-10.08-1.3s4.47-1.22,10.08-1.22h0Z" transform="translate(-262 -157)"/><path class="ec" d="M274.628,181.067c5.54,0,10.08.5,10.08,1.22s-4.54,1.3-10.08,1.3c-5.62,0-10.08-.58-10.08-1.3s4.46-1.22,10.08-1.22h0Z" transform="translate(-262 -157)"/><path class="ec" d="M274.628,173.8c5.18,0,9.43.5,9.43,1.22s-4.25,1.3-9.43,1.3c-5.26,0-9.43-.58-9.43-1.3s4.17-1.22,9.43-1.22h0Z" transform="translate(-262 -157)"/><path class="ec" d="M273.978,166.887c5.04,0,9.14.5,9.14,1.22s-4.1,1.3-9.14,1.3c-5.11,0-9.22-.58-9.22-1.3s4.11-1.22,9.22-1.22h0Z" transform="translate(-262 -157)"/><path class="ec" d="M273.838,160.187c4.68,0,8.42.5,8.42,1.22s-3.74,1.3-8.42,1.3c-4.76,0-8.5-.58-8.5-1.3s3.74-1.22,8.5-1.22h0Z" transform="translate(-262 -157)"/><path class="ec" d="M278.3,242.557c5.33,0,9.65.5,9.65,1.29,0,0.65-4.32,1.23-9.65,1.23s-9.65-.58-9.65-1.23c0-.79,4.32-1.29,9.65-1.29h0Z" transform="translate(-262 -157)"/><path class="ec" d="M277.938,250.117c5.33,0,9.65.5,9.65,1.29,0,0.65-4.32,1.23-9.65,1.23s-9.65-.58-9.65-1.23c0-.79,4.32-1.29,9.65-1.29h0Z" transform="translate(-262 -157)"/><path class="ec" d="M278.228,258.177c5.33,0,9.65.51,9.65,1.3,0,0.65-4.32,1.22-9.65,1.22s-9.65-.57-9.65-1.22c0-.79,4.32-1.3,9.65-1.3h0Z" transform="translate(-262 -157)"/><path class="ec" d="M278.588,264.807c5.33,0,9.65.57,9.65,1.29s-4.32,1.3-9.65,1.3-9.65-.58-9.65-1.3,4.32-1.29,9.65-1.29h0Z" transform="translate(-262 -157)"/><path class="ec" d="M279.6,272.367c5.32,0,9.64.57,9.64,1.29s-4.32,1.3-9.64,1.3-9.65-.58-9.65-1.3,4.32-1.29,9.65-1.29h0Z" transform="translate(-262 -157)"/><path class="ec" d="M280.818,279.347c5.9,0,10.73.5,10.73,1.22s-4.83,1.3-10.73,1.3c-5.98,0-10.73-.58-10.73-1.3s4.75-1.22,10.73-1.22h0Z" transform="translate(-262 -157)"/><path class="ec" d="M282.4,286.907c6.12,0,11.09.5,11.09,1.22s-4.97,1.3-11.09,1.3-11.01-.58-11.01-1.3,4.89-1.22,11.01-1.22h0Z" transform="translate(-262 -157)"/><path class="ec" d="M283.558,293.527c6.48-.21,11.73.15,11.73,0.87,0.07,0.72-5.11,1.37-11.59,1.58-6.41.15-11.59-.21-11.66-0.93,0-.72,5.11-1.37,11.52-1.52h0Z" transform="translate(-262 -157)"/><path class="ec" d="M284.778,300.3c6.48-.21,11.74.15,11.74,0.87,0.07,0.72-5.12,1.36-11.6,1.58-6.48.14-11.66-.22-11.73-0.94,0-.72,5.11-1.36,11.59-1.51h0Z" transform="translate(-262 -157)"/><path class="ec" d="M284.128,306.347c6.05-.22,10.95.14,10.95,0.86,0.07,0.72-4.76,1.37-10.8,1.59-5.98.14-10.8-.22-10.88-0.94,0-.72,4.76-1.37,10.73-1.51h0Z" transform="translate(-262 -157)"/><path class="ec" d="M284.128,312.607c5.33-.14,9.65.22,9.65,0.94,0.07,0.72-4.25,1.51-9.58,1.66-5.25.21-9.57-.22-9.64-0.94,0-.72,4.32-1.44,9.57-1.66h0Z" transform="translate(-262 -157)"/><path class="ec" d="M284.918,317.577c5.33-.14,9.65.22,9.65,0.94,0.07,0.72-4.25,1.51-9.57,1.65-5.26.22-9.58-.21-9.65-0.93,0-.72,4.32-1.44,9.57-1.66h0Z" transform="translate(-262 -157)"/><path class="ec" d="M284.2,323.2c4.83,0,8.64.65,8.5,1.37,0.14,0.64-3.6,1.29-8.42,1.36-4.61.08-8.28-.5-8.36-1.22,0.15-.72,3.82-1.3,8.28-1.51h0Z" transform="translate(-262 -157)"/></svg>