<svg xmlns="http://www.w3.org/2000/svg" viewBox="0 0 528.75 368.75">
  <defs>
    <style>
      .a, .c, .d, .e, .f {
        fill: none;
        stroke-linecap: round;
        stroke-miterlimit: 10;
      }

      .a, .e, .f {
        stroke: #F3D69B;
      }

      .a {
        stroke-width: 0.25px;
      }

      .b {
        font-size: 10.75px;
        fill: #F3D69B;
        font-family: Helvetica Neue;
      }

      .d, .f {
        stroke: #E79D5E;
        stroke-width:3pt;
      }


      .c, .e {
        stroke: #F3D69B;
        stroke-width:1.5pt;
        stroke-dasharray: 3 3.75;
      }

    </style>
  </defs>
  <title>vvdash</title>
  <g>
    <path class="a" d="M90.5,535.49h460m-460,0v-302m0,302v-2.5m46,2.5v-2.5m46,2.5v-2.5m46,2.5v-2.5m46,2.5v-2.5m46,2.5v-2.5m46,2.5v-2.5m46,2.5v-2.5m46,2.5v-2.5m46,2.5v-2.5m46,2.5v-2.5m-460,2.5v-5m92,5v-5m92,5v-5m92,5v-5m92,5v-5m92,5v-5" transform="translate(-36.625 -208.625)"/>
    <text class="b" transform="translate(45.6 339.365)">300</text>
    <text class="b" transform="translate(137.607 339.365)">400</text>
    <text class="b" transform="translate(229.6 339.365)">500</text>
    <text class="b" transform="translate(321.6 339.365)">600</text>
    <text class="b" transform="translate(413.6 339.365)">700</text>
    <text class="b" transform="translate(505.6 339.365)">800</text>
    <text class="b" transform="translate(245.092 353.865)">Wavelength (nm)</text>
    <path class="a" d="M90.5,535.49H93m-2.5-30H93m-2.5-30.25H93m-2.5-30.25H93m-2.5-30.25H93m-2.5-30.25H93m-2.5-30H93m-2.5-30.25H93m-2.5-30.25H93m-2.5-30.25H93m-2.5-30.25H93m-2.5,302h5m-5-60.25h5m-5-60.5h5m-5-60.25h5m-5-60.5h5m-5-60.5h5" transform="translate(-36.625 -208.625)"/>
    <text class="b" transform="translate(33.623 330.365)">0.</text>
    <text class="b" transform="translate(41.357 330.365)">0</text>
    <text class="b" transform="translate(33.623 270.115)">0.</text>
    <text class="b" transform="translate(41.357 270.115)">2</text>
    <text class="b" transform="translate(33.623 209.623)">0.</text>
    <text class="b" transform="translate(41.357 209.623)">4</text>
    <text class="b" transform="translate(33.623 149.365)">0.</text>
    <text class="b" transform="translate(41.357 149.365)">6</text>
    <text class="b" transform="translate(33.623 88.865)">0.</text>
    <text class="b" transform="translate(41.357 88.865)">8</text>
    <text class="b" transform="translate(33.623 28.373)">1.</text>
    <text class="b" transform="translate(41.357 28.373)">0</text>
    <text class="b" transform="translate(24.373 238.256) rotate(-90)">Relative luminous efficiency</text>
    <polyline class="c" points="127.373 326.865 131.123 326.865 134.873 326.865 138.623 326.865 142.123 326.865 145.873 326.865 149.623 326.865 153.373 326.615 157.123 326.615 160.873 326.115 164.623 325.615 168.123 324.865 171.873 323.865 175.623 322.615 179.373 321.365 183.123 319.865 186.873 318.115 190.623 316.115 194.373 313.865 197.873 311.365 201.623 308.365 205.373 304.865 209.123 300.865 212.873 295.865 216.623 289.865 220.373 283.365 223.873 275.615 227.623 266.615 231.373 255.115 235.123 241.115 238.873 223.865 242.623 203.115 246.373 179.365 250.123 153.865 253.623 128.115 257.373 104.865 261.123 85.115 264.873 68.615 268.623 54.865 272.373 44.115 276.123 35.865 279.873 30.115 283.373 26.615 287.123 25.115 290.873 25.365 294.623 27.865 298.373 32.615 302.123 39.365 305.873 47.865 309.373 58.365 313.123 70.615 316.873 84.115 320.623 98.865 324.373 113.865 328.123 129.365 331.873 145.115 335.623 160.865 339.123 176.115 342.873 191.365 346.623 206.115 350.373 220.865 354.123 235.115 357.873 248.615 361.623 260.365 365.123 270.865 368.873 280.115 372.623 288.615 376.373 295.865 380.123 302.115 383.873 307.115 387.623 311.615 391.373 315.115 394.873 317.865 398.623 319.865 402.373 321.615 406.123 322.865 409.873 323.865 413.623 324.615 417.373 325.365 421.123 325.615 424.623 325.865 428.373 326.115 432.123 326.365 435.873 326.615 439.623 326.615 443.373 326.865 447.123 326.865 450.623 326.865 454.373 326.865 458.123 326.865 461.873 326.865 465.623 326.865 469.373 326.865 473.123 326.865 476.873 326.865 480.373 326.865 484.123 326.865 487.873 326.865 491.623 326.865 495.373 326.865"/>
    <polyline class="d" points="127.373 326.865 131.123 326.615 134.873 326.365 138.623 326.115 142.123 325.365 145.873 324.115 149.623 321.865 153.373 318.365 157.123 313.365 160.873 306.115 164.623 296.865 168.123 285.365 171.873 272.115 175.623 257.365 179.373 241.615 183.123 225.615 186.873 209.615 190.623 194.365 194.373 179.865 197.873 166.365 201.623 153.115 205.373 140.115 209.123 126.615 212.873 112.615 216.623 98.365 220.373 83.865 223.873 69.865 227.623 56.865 231.373 45.115 235.123 35.615 238.873 28.615 242.623 25.115 246.373 25.365 250.123 29.615 253.623 37.615 257.373 48.865 261.123 63.115 264.873 79.865 268.623 98.365 272.373 118.365 276.123 139.115 279.873 159.865 283.373 180.115 287.123 199.865 290.873 218.115 294.623 235.115 298.373 250.365 302.123 263.865 305.873 275.865 309.373 285.865 313.123 294.365 316.873 301.615 320.623 307.365 324.373 311.865 328.123 315.615 331.873 318.365 335.623 320.615 339.123 322.365 342.873 323.615 346.623 324.365 350.373 325.115 354.123 325.615 357.873 326.115 361.623 326.365 365.123 326.365 368.873 326.615 372.623 326.615 376.373 326.865 380.123 326.865 383.873 326.865 387.623 326.865 391.373 326.865 394.873 326.865 398.623 326.865 402.373 326.865 406.123 326.865 409.873 326.865 413.623 326.865 417.373 326.865 421.123 326.865 424.623 326.865 428.373 326.865 432.123 326.865 435.873 326.865 439.623 326.865 443.373 326.865 447.123 326.865 450.623 326.865 454.373 326.865 458.123 326.865 461.873 326.865 465.623 326.865 469.373 326.865 473.123 326.865 476.873 326.865 480.373 326.865 484.123 326.865 487.873 326.865 491.623 326.865 495.373 326.865"/>
    <line class="e" x1="75.373" y1="45.115" x2="101.373" y2="45.115"/>
    <text class="b" transform="translate(107.873 48.615)">Scotopic vision</text>
    <line class="f" x1="75.373" y1="58.615" x2="101.373" y2="58.615"/>
    <text class="b" transform="translate(107.873 62.123)">Photopic vision</text>
  </g>
</svg>
